<svg width="402" height="145" viewBox="0 0 402 145" fill="none" xmlns="http://www.w3.org/2000/svg">
<path d="M109.26 42.2924L91.1298 53.7167C90.9392 53.8368 90.6966 53.8174 90.5214 53.6758C88.8916 52.3571 86.1065 50.9438 82.3366 52.093C82.1669 52.1447 81.9809 52.1107 81.8459 51.9954L79.7426 50.2C79.4774 49.9736 79.5066 49.5553 79.8006 49.3679L83.4544 47.039C103.005 34.5787 99.5532 11.9519 97.5192 10.9134C80.5852 2.26732 63.3689 4.47676 46.9126 14.0023C45.574 14.7771 45.4151 16.6524 46.5892 17.6593L53.2576 23.3781C55.32 25.1193 53.984 27.5089 51.9726 26.6928C38.5955 20.1033 21.9629 22.3637 10.8318 33.495C-2.58579 46.9124 -2.97549 80.5601 12.5795 102.568C12.7508 102.811 12.686 103.145 12.435 103.303L3.0657 109.206C2.91493 109.301 2.82347 109.467 2.82347 109.645V131.619C2.82347 132.039 3.29602 132.285 3.6399 132.044L33.2484 111.317C33.6739 111.019 34.2267 111.458 34.0272 111.938C32.9289 114.579 30.3073 119.949 25.8844 123.723C25.6488 123.924 25.6328 124.285 25.8569 124.499C56.2943 153.531 102.28 136.094 95.7268 108.862C93.3323 98.7848 83.2369 93.099 74.4599 96.7898C70.3271 98.5281 72.2461 104.801 76.8012 103.734C88.3214 101.032 90.6585 124.411 67.2641 122.98C56.1223 122.366 46.093 116.804 39.9362 107.01C39.7891 106.776 39.8529 106.464 40.0787 106.304L68.1172 86.4915C71.3379 84.297 75.4067 83.7459 79.1785 84.7272L109.434 90.5506C109.754 90.6122 110.051 90.367 110.051 90.0411V81.8696C110.051 81.663 109.929 81.4761 109.739 81.3937L89.2415 72.4829C88.8894 72.3298 88.8197 71.8606 89.1121 71.6118L103.113 59.6996C110.108 54.3492 110.087 47.4102 110.056 42.7247C110.053 42.3178 109.605 42.0755 109.26 42.2924ZM73.7687 15.9099C78.099 15.1269 82.4559 18.4519 82.5492 23.0742C82.5584 23.5187 82.0825 23.6366 81.7355 23.3578C78.2056 20.5279 71.5659 21.2173 68.7004 25.5664C68.4558 25.9388 67.9766 25.9895 67.8388 25.5668C66.408 21.1861 69.4103 16.5989 73.7687 15.9099ZM39.1172 75.2972L49.2696 68.8267C49.4111 68.7365 49.4994 68.5846 49.5088 68.417C49.6706 65.524 50.5831 56.8714 55.7363 51.2921C56.0976 50.901 56.7384 51.2369 56.6289 51.7579C55.6718 56.313 55.8666 62.8268 55.9407 64.5748L55.9611 64.5617L56.217 75.4167C56.2212 75.5992 56.1293 75.7706 55.9748 75.8679L32.1028 90.9098C31.7741 91.1169 31.3468 90.9027 31.3065 90.5164C30.7468 85.1495 33.4716 78.8954 39.1172 75.2972ZM66.8776 68.4894C65.8787 67.4117 64.6916 66.5061 63.2618 66.1261C63.0232 66.0627 62.8522 65.855 62.8582 65.6082L62.9862 60.3563C62.9904 60.1836 63.0804 60.0243 63.2261 59.9314L70.6939 55.1719C70.8611 55.0654 71.0715 55.0625 71.2403 55.1664C73.8626 56.7804 76.7281 58.4275 79.742 59.9649C80.1008 60.1478 80.1269 60.6495 79.7862 60.8641L67.5382 68.5816C67.3248 68.7162 67.0492 68.6744 66.8776 68.4894Z" fill="#2622F7"/>
<path d="M344.309 38.712C344.309 35.544 343.373 34.032 341.429 34.032C338.693 34.032 337.109 36.624 337.109 41.304V66H326.597V25.68H336.533V30.144C336.533 31.008 337.181 31.152 337.541 30.36C339.053 26.832 341.933 24.816 345.461 24.816C351.077 24.816 354.821 29.568 354.821 36.696V66H344.309V38.712Z" fill="#2622F7"/>
<path d="M306.649 66.864C296.857 66.864 291.529 60.096 291.529 46.56C291.529 32.88 296.929 24.816 306.937 24.816C316.729 24.816 322.057 32.736 322.057 46.272C322.057 59.952 316.657 66.864 306.649 66.864ZM302.473 46.272C302.473 54.912 303.769 58.224 306.937 58.224C309.889 58.224 311.113 55.056 311.113 46.56C311.113 37.92 309.817 33.456 306.649 33.456C303.697 33.456 302.473 37.776 302.473 46.272Z" fill="#2622F7"/>
<path d="M276.484 66V27.408H286.996V66H276.484ZM276.196 23.52V15.6L277.78 14.016H285.7L287.284 15.6V23.52L285.7 25.104H277.78L276.196 23.52Z" fill="#2622F7"/>
<path d="M272.372 65.784C271.004 66.288 269.204 66.576 267.332 66.576C261.068 66.576 257.54 62.904 257.54 56.352V14.736H268.052V54.48C268.052 56.64 268.772 57.648 270.212 57.648C270.86 57.648 271.652 57.504 272.372 57.288V65.784Z" fill="#2622F7"/>
<path d="M254.135 65.784C252.767 66.288 250.967 66.576 249.095 66.576C242.831 66.576 239.303 62.904 239.303 56.352V14.736H249.815V54.48C249.815 56.64 250.535 57.648 251.975 57.648C252.623 57.648 253.415 57.504 254.135 57.288V65.784Z" fill="#2622F7"/>
<path d="M223.322 66V27.408H233.834V66H223.322ZM223.034 23.52V15.6L224.618 14.016H232.538L234.122 15.6V23.52L232.538 25.104H224.618L223.034 23.52Z" fill="#2622F7"/>
<path d="M173.164 66V25.68H183.1V30.144C183.1 31.008 183.748 31.152 184.108 30.36C185.62 26.832 188.356 24.816 191.74 24.816C195.988 24.816 198.292 27.408 199.66 30.36C200.02 31.152 200.452 31.152 200.812 30.36C202.324 26.832 205.492 24.816 208.876 24.816C214.348 24.816 217.948 29.568 217.948 36.696V66H207.436V38.712C207.436 35.544 206.644 34.032 204.844 34.032C202.252 34.032 200.812 36.624 200.812 41.304V66H190.3V38.712C190.3 35.544 189.508 34.032 187.708 34.032C185.116 34.032 183.676 36.624 183.676 41.304V66H173.164Z" fill="#2622F7"/>
<path d="M138.067 23.304C138.427 23.376 138.787 23.448 139.363 23.448C143.323 23.448 146.491 20.28 147.283 15.6H156.643V66H145.843V29.064C145.843 28.2 145.195 28.056 144.835 28.848C143.899 31.08 141.883 32.376 139.363 32.376C138.787 32.376 138.427 32.304 138.067 32.232V23.304Z" fill="#2622F7"/>
<path d="M232.308 139V120.1H237.114C241.731 120.1 243.918 123.097 243.918 129.496C243.918 135.949 241.704 139 237.006 139H232.308ZM236.358 135.706H236.898C238.923 135.706 239.706 134.005 239.706 129.604C239.706 125.122 238.896 123.394 236.79 123.394H236.358V135.706Z" fill="#260071"/>
<path d="M220.697 139V120.1H230.363V123.394H224.747V127.39H228.095V130.576H224.747V135.706H230.579V139H220.697Z" fill="#260071"/>
<path d="M207.398 139V120.1H212.96C216.659 120.1 218.684 122.044 218.684 125.5C218.684 128.038 217.496 129.712 215.363 130.252C214.958 130.36 215.012 130.549 215.336 130.711C216.2 131.116 216.686 131.737 217.01 132.763L219.008 139H214.715L212.798 131.035H211.448V139H207.398ZM211.448 127.876H212.744C213.986 127.876 214.58 127.147 214.58 125.635C214.58 124.123 213.959 123.394 212.636 123.394H211.448V127.876Z" fill="#260071"/>
<path d="M195.788 139V120.1H205.454V123.394H199.838V127.39H203.186V130.576H199.838V135.706H205.67V139H195.788Z" fill="#260071"/>
<path d="M184.735 121.18H185.545L188.677 131.143C188.785 131.467 189.028 131.467 189.055 131.143L190.162 120.1H194.077L190.702 139H187.084L185.086 131.521C185.005 131.224 184.789 131.224 184.708 131.521L182.98 139H179.362L175.987 120.1H180.118L181.819 131.143C181.873 131.467 182.116 131.467 182.197 131.143L184.735 121.18Z" fill="#260071"/>
<path d="M169.966 139.324C166.159 139.324 164.08 136.489 164.701 132.196H168.103C167.806 134.518 168.427 136.03 169.858 136.03C170.965 136.03 171.613 135.085 171.613 133.654C171.613 132.466 171.1 131.845 169.453 131.17L167.968 130.549C165.646 129.577 164.539 127.93 164.539 125.473C164.539 122.044 166.672 119.776 169.858 119.776C173.26 119.776 175.231 122.26 174.988 126.094H171.64C171.748 124.231 171.181 123.07 169.966 123.07C169.021 123.07 168.481 123.853 168.481 125.041C168.481 126.121 168.94 126.661 170.371 127.255L172.315 128.065C174.529 128.983 175.555 130.63 175.555 133.222C175.555 136.948 173.368 139.324 169.966 139.324Z" fill="#260071"/>
<path d="M151.41 139V120.1H155.352L158.646 127.255C158.781 127.552 159.024 127.498 159.024 127.174V120.1H162.642V139H160.374L155.406 128.875C155.271 128.578 155.028 128.632 155.028 128.956V139H151.41Z" fill="#260071"/>
<path d="M143.432 125.689C143.378 125.365 143.108 125.365 143.054 125.689L142.109 132.736H144.701L143.432 125.689ZM137.384 139L141.245 120.1H146.051L149.912 139H145.808L145.241 135.814H141.704L141.272 139H137.384Z" fill="#260071"/>
<path d="M278.982 108V89.1H284.598C288.27 89.1 290.376 91.071 290.376 94.689C290.376 98.307 288.243 100.278 284.49 100.278H283.032V108H278.982ZM283.032 97.092H284.382C285.597 97.092 286.272 96.255 286.272 94.743C286.272 93.231 285.57 92.394 284.274 92.394H283.032V97.092Z" fill="#260071"/>
<path d="M268.162 108V89.1H272.212V104.706H277.396V108H268.162Z" fill="#260071"/>
<path d="M256.551 108V89.1H266.217V92.394H260.601V96.39H263.949V99.576H260.601V104.706H266.433V108H256.551Z" fill="#260071"/>
<path d="M250.152 108V99.603H246.696V108H242.646V89.1H246.696V96.363H250.152V89.1H254.202V108H250.152Z" fill="#260071"/>
<path d="M225.383 108V89.1H230.945C234.644 89.1 236.669 91.044 236.669 94.5C236.669 97.038 235.481 98.712 233.348 99.252C232.943 99.36 232.997 99.549 233.321 99.711C234.185 100.116 234.671 100.737 234.995 101.763L236.993 108H232.7L230.783 100.035H229.433V108H225.383ZM229.433 96.876H230.729C231.971 96.876 232.565 96.147 232.565 94.635C232.565 93.123 231.944 92.394 230.621 92.394H229.433V96.876Z" fill="#260071"/>
<path d="M217.253 108.324C213.095 108.324 211.151 105.435 211.151 98.82C211.151 92.124 213.149 88.776 217.361 88.776C221.519 88.776 223.463 92.097 223.463 98.712C223.463 105.408 221.465 108.324 217.253 108.324ZM215.363 98.712C215.363 103.383 215.93 104.976 217.361 104.976C218.711 104.976 219.251 103.41 219.251 98.82C219.251 94.149 218.684 92.124 217.253 92.124C215.903 92.124 215.363 94.122 215.363 98.712Z" fill="#260071"/>
<path d="M201.106 108V89.1H210.556V92.394H205.156V96.39H208.612V99.576H205.156V108H201.106Z" fill="#260071"/>
<path d="M189.734 108.324C185.927 108.324 183.848 105.489 184.469 101.196H187.871C187.574 103.518 188.195 105.03 189.626 105.03C190.733 105.03 191.381 104.085 191.381 102.654C191.381 101.466 190.868 100.845 189.221 100.17L187.736 99.549C185.414 98.577 184.307 96.93 184.307 94.473C184.307 91.044 186.44 88.776 189.626 88.776C193.028 88.776 194.999 91.26 194.756 95.094H191.408C191.516 93.231 190.949 92.07 189.734 92.07C188.789 92.07 188.249 92.853 188.249 94.041C188.249 95.121 188.708 95.661 190.139 96.255L192.083 97.065C194.297 97.983 195.323 99.63 195.323 102.222C195.323 105.948 193.136 108.324 189.734 108.324Z" fill="#260071"/>
<path d="M174.209 108V89.1H178.259V104.706H183.443V108H174.209Z" fill="#260071"/>
<path d="M163.39 108V89.1H167.44V104.706H172.624V108H163.39Z" fill="#260071"/>
<path d="M155.412 94.689C155.358 94.365 155.088 94.365 155.034 94.689L154.089 101.736H156.681L155.412 94.689ZM149.364 108L153.225 89.1H158.031L161.892 108H157.788L157.221 104.814H153.684L153.252 108H149.364Z" fill="#260071"/>
<path d="M143.486 108.324C139.49 108.324 137.6 105.435 137.6 98.82C137.6 92.178 139.544 88.776 143.486 88.776C146.807 88.776 148.67 91.26 148.427 96.174H145.025C145.133 93.366 144.62 92.124 143.594 92.124C142.298 92.124 141.812 94.122 141.812 98.712C141.812 103.383 142.352 104.976 143.702 104.976C144.863 104.976 145.376 103.734 145.079 100.251H148.508C149.075 105.867 147.104 108.324 143.486 108.324Z" fill="#260071"/>
</svg>
