<svg width="403" height="145" viewBox="0 0 403 145" fill="none" xmlns="http://www.w3.org/2000/svg">
<path d="M81.8703 117.63C79.9306 122.103 76.0986 130.921 70.6566 139.158C70.5157 139.371 70.2754 139.5 70.0197 139.5H60.7246C60.193 139.5 59.8082 139.006 59.9246 138.487C60.3174 136.736 61.6452 133.224 66.0473 132.115C66.2191 132.071 66.3612 131.947 66.4175 131.779L70.7568 118.831C71.0202 118.045 70.9351 117.186 70.534 116.461C69.1127 113.889 65.9854 107.088 67.619 99.4079C67.7488 98.7977 68.6085 98.7742 68.7869 99.3719C70.3178 104.501 73.7681 110.266 80.4351 113.618C81.9023 114.356 82.5237 116.123 81.8703 117.63ZM111.881 113.395C111.425 124.507 108.017 136.414 107.214 138.972C107.115 139.288 106.823 139.5 106.491 139.5H96.4957C95.9918 139.5 95.6092 139.087 95.677 138.588C96.1537 135.075 99.2941 133.268 100.206 132.813C100.362 132.735 100.47 132.585 100.493 132.412C101.454 125.257 101.117 119.206 100.93 115.45C100.784 112.532 98.5955 112.56 98.5955 112.56C77.2813 112.56 71.7117 95.4722 70.9163 92.5551C70.8496 92.3107 70.6188 92.1518 70.3667 92.1752L41.5137 94.8559C41.1276 94.9432 40.8587 95.2935 40.8701 95.6895C41.4435 115.893 39.1258 135.553 38.5087 138.879C38.4419 139.24 38.1286 139.5 37.7626 139.5H26.4097C25.9221 139.5 25.5301 139.073 25.5933 138.59C26.0729 134.925 29.3513 132.918 30.3777 132.374C30.5642 132.275 30.6687 132.073 30.6467 131.863L27.207 99.0656C26.8276 95.9361 24.2992 93.4669 21.1646 93.1321C14.7878 92.4508 11.093 89.5507 9.33386 87.6859C8.86196 87.1856 8.03326 87.5548 8.05804 88.2421C8.26481 93.9756 12.9774 97.3343 14.6407 98.3267C15.068 98.5815 15.3298 99.0395 15.3259 99.537L14.9943 138.747C14.9907 139.164 14.6519 139.5 14.2351 139.5H3.06999C2.58922 139.5 2.20311 139.085 2.25084 138.606C2.67207 134.385 6.03154 132.778 7.17886 132.349C7.40404 132.265 7.53964 132.043 7.51094 131.804C6.87805 126.549 0.5 73.0324 0.5 50.8723C0.5 28.1012 12.1768 7.10046 26.0968 6.13065C26.6381 6.09296 27.1008 6.51909 27.1008 7.0616V16.1179C27.1008 17.0254 27.4706 17.894 28.1247 18.5233L42.5979 33.3619C43.309 34.0463 43.464 35.1222 42.979 35.9817C41.0568 39.3887 36.2878 47.3513 24.8122 47.3513C24.8122 47.3513 22.415 47.1809 22.0368 49.31C21.673 51.3585 23.213 52.1685 25.168 52.5065C27.0394 52.8297 86.2774 63.2158 91.3663 64.108C102.671 65.3582 103.911 56.4108 100.968 51.9875C98.558 48.3673 93.3568 46.2573 89.6346 45.5497C64.1694 40.7096 64.7014 18.4084 76.4104 10.093C84.259 4.51908 95.7518 5.01595 104.085 6.43862C106.446 6.84168 108.265 8.91193 108.122 11.3026C107.953 14.1184 105.39 16.0801 102.696 15.6151C93.0884 13.9478 79.7701 13.8769 78.1362 23.7606C76.6649 32.6506 86.8988 34.8712 91.3667 35.7203C94.1584 36.2506 105.086 38.569 110.12 46.1327C114.177 52.2292 114.182 61.0663 110.16 67.1867C106.885 72.1694 99.4789 74.5623 99.5403 81.212C99.6757 95.8749 100.576 99.1966 104.693 102.093C109.25 105.299 112.4 105.278 111.881 113.395ZM22.3278 30.3191H22.4621C24.7434 30.3191 26.6351 31.2414 27.7529 32.4979C27.9926 32.7675 28.3889 32.7378 28.4417 32.3813C28.5125 31.9055 28.5274 31.4107 28.4753 30.9027C28.16 27.8459 25.4675 25.433 22.3947 25.4667C19.3223 25.433 16.6298 27.8459 16.3149 30.9027C16.2624 31.4107 16.2773 31.9055 16.3481 32.3813C16.4009 32.7378 16.7909 32.762 17.0369 32.4979C18.356 31.0826 20.0468 30.3191 22.3278 30.3191Z" fill="#2622F7"/>
<path d="M223.175 43.032C222.887 42.24 222.167 42.384 222.167 43.176V66H211.367V15.6H222.167V35.688C222.167 36.552 222.887 36.696 223.175 35.904L231.383 15.6H242.759L231.671 35.544L243.335 66H231.671L223.175 43.032Z" fill="#2622F7"/>
<path d="M194.193 43.32C192.465 46.488 189.729 48 186.273 48C179.217 48 174.609 41.88 174.609 31.8C174.609 21.144 180.081 14.736 190.161 14.736C201.753 14.736 206.289 22.728 206.289 40.08C206.289 57.504 200.745 66.864 189.657 66.864C180.657 66.864 175.329 60.816 175.833 51.456H184.761C184.689 55.488 186.417 58.08 189.369 58.08C193.329 58.08 195.201 53.4 195.201 43.536C195.201 42.672 194.625 42.528 194.193 43.32ZM185.409 32.016C185.409 37.56 187.065 40.224 190.161 40.224C193.041 40.224 194.625 37.704 194.625 32.304C194.625 26.76 192.969 23.52 189.873 23.52C186.993 23.52 185.409 26.616 185.409 32.016Z" fill="#2622F7"/>
<path d="M141.394 66V63.84L152.554 46.992C157.594 39.36 159.826 33.744 159.826 29.424C159.826 25.752 158.314 23.664 155.65 23.664C152.266 23.664 150.826 26.976 151.114 34.464H142.042C141.322 21.36 146.29 14.736 155.938 14.736C164.866 14.736 170.626 20.424 170.626 29.352C170.626 35.4 167.89 41.304 160.618 50.592L156.226 56.208C155.722 56.856 156.082 57.216 156.658 57.216H170.626V66H141.394Z" fill="#2622F7"/>
<path d="M386.326 139V138.19L390.511 131.872C392.401 129.01 393.238 126.904 393.238 125.284C393.238 123.907 392.671 123.124 391.672 123.124C390.403 123.124 389.863 124.366 389.971 127.174H386.569C386.299 122.26 388.162 119.776 391.78 119.776C395.128 119.776 397.288 121.909 397.288 125.257C397.288 127.525 396.262 129.739 393.535 133.222L391.888 135.328C391.699 135.571 391.834 135.706 392.05 135.706H397.288V139H386.326Z" fill="#260071"/>
<path d="M373.95 139V138.19L378.135 131.872C380.025 129.01 380.862 126.904 380.862 125.284C380.862 123.907 380.295 123.124 379.296 123.124C378.027 123.124 377.487 124.366 377.595 127.174H374.193C373.923 122.26 375.786 119.776 379.404 119.776C382.752 119.776 384.912 121.909 384.912 125.257C384.912 127.525 383.886 129.739 381.159 133.222L379.512 135.328C379.323 135.571 379.458 135.706 379.674 135.706H384.912V139H373.95Z" fill="#260071"/>
<path d="M366.701 139.324C362.489 139.324 360.653 136.489 360.653 129.82C360.653 123.07 362.543 119.776 366.809 119.776C371.021 119.776 372.857 123.043 372.857 129.712C372.857 136.462 370.967 139.324 366.701 139.324ZM364.865 129.712C364.865 134.437 365.324 135.976 366.809 135.976C368.213 135.976 368.645 134.464 368.645 129.82C368.645 125.095 368.186 123.124 366.701 123.124C365.297 123.124 364.865 125.068 364.865 129.712Z" fill="#260071"/>
<path d="M348.25 139V138.19L352.435 131.872C354.325 129.01 355.162 126.904 355.162 125.284C355.162 123.907 354.595 123.124 353.596 123.124C352.327 123.124 351.787 124.366 351.895 127.174H348.493C348.223 122.26 350.086 119.776 353.704 119.776C357.052 119.776 359.212 121.909 359.212 125.257C359.212 127.525 358.186 129.739 355.459 133.222L353.812 135.328C353.623 135.571 353.758 135.706 353.974 135.706H359.212V139H348.25Z" fill="#260071"/>
<path d="M331.209 139V120.1H335.151L338.445 127.255C338.58 127.552 338.823 127.498 338.823 127.174V120.1H342.441V139H340.173L335.205 128.875C335.07 128.578 334.827 128.632 334.827 128.956V139H331.209Z" fill="#260071"/>
<path d="M324.819 139V120.1H328.869V139H324.819Z" fill="#260071"/>
<path d="M313.447 139.324C309.64 139.324 307.561 136.489 308.182 132.196H311.584C311.287 134.518 311.908 136.03 313.339 136.03C314.446 136.03 315.094 135.085 315.094 133.654C315.094 132.466 314.581 131.845 312.934 131.17L311.449 130.549C309.127 129.577 308.02 127.93 308.02 125.473C308.02 122.044 310.153 119.776 313.339 119.776C316.741 119.776 318.712 122.26 318.469 126.094H315.121C315.229 124.231 314.662 123.07 313.447 123.07C312.502 123.07 311.962 123.853 311.962 125.041C311.962 126.121 312.421 126.661 313.852 127.255L315.796 128.065C318.01 128.983 319.036 130.63 319.036 133.222C319.036 136.948 316.849 139.324 313.447 139.324Z" fill="#260071"/>
<path d="M297.052 139V120.1H306.718V123.394H301.102V127.39H304.45V130.576H301.102V135.706H306.934V139H297.052Z" fill="#260071"/>
<path d="M283.754 139V120.1H289.316C293.015 120.1 295.04 122.044 295.04 125.5C295.04 128.038 293.852 129.712 291.719 130.252C291.314 130.36 291.368 130.549 291.692 130.711C292.556 131.116 293.042 131.737 293.366 132.763L295.364 139H291.071L289.154 131.035H287.804V139H283.754ZM287.804 127.876H289.1C290.342 127.876 290.936 127.147 290.936 125.635C290.936 124.123 290.315 123.394 288.992 123.394H287.804V127.876Z" fill="#260071"/>
<path d="M274.738 139V123.394H271.39V120.1H282.136V123.394H278.788V139H274.738Z" fill="#260071"/>
<path d="M258.528 139V120.1H262.47L265.764 127.255C265.899 127.552 266.142 127.498 266.142 127.174V120.1H269.76V139H267.492L262.524 128.875C262.389 128.578 262.146 128.632 262.146 128.956V139H258.528Z" fill="#260071"/>
<path d="M246.917 139V120.1H256.583V123.394H250.967V127.39H254.315V130.576H250.967V135.706H256.799V139H246.917Z" fill="#260071"/>
<path d="M239.837 139.324C235.841 139.324 233.951 136.435 233.951 129.82C233.951 123.178 235.895 119.776 239.837 119.776C243.158 119.776 245.021 122.26 244.778 127.174H241.376C241.484 124.366 240.971 123.124 239.945 123.124C238.649 123.124 238.163 125.122 238.163 129.712C238.163 134.383 238.703 135.976 240.053 135.976C241.214 135.976 241.727 134.734 241.43 131.251H244.859C245.426 136.867 243.455 139.324 239.837 139.324Z" fill="#260071"/>
<path d="M217.12 139V120.1H222.682C226.381 120.1 228.406 122.044 228.406 125.5C228.406 128.038 227.218 129.712 225.085 130.252C224.68 130.36 224.734 130.549 225.058 130.711C225.922 131.116 226.408 131.737 226.732 132.763L228.73 139H224.437L222.52 131.035H221.17V139H217.12ZM221.17 127.876H222.466C223.708 127.876 224.302 127.147 224.302 125.635C224.302 124.123 223.681 123.394 222.358 123.394H221.17V127.876Z" fill="#260071"/>
<path d="M209.144 139.324C205.283 139.324 203.474 137.083 203.474 132.304V120.1H207.524V132.412C207.524 134.977 208.01 135.976 209.252 135.976C210.413 135.976 210.872 135.004 210.872 132.52V120.1H214.922V132.196C214.922 137.056 213.086 139.324 209.144 139.324Z" fill="#260071"/>
<path d="M195.454 139.324C191.296 139.324 189.352 136.435 189.352 129.82C189.352 123.124 191.35 119.776 195.562 119.776C199.72 119.776 201.664 123.097 201.664 129.712C201.664 136.408 199.666 139.324 195.454 139.324ZM193.564 129.712C193.564 134.383 194.131 135.976 195.562 135.976C196.912 135.976 197.452 134.41 197.452 129.82C197.452 125.149 196.885 123.124 195.454 123.124C194.104 123.124 193.564 125.122 193.564 129.712Z" fill="#260071"/>
<path d="M177.69 139.324C173.532 139.324 171.588 136.435 171.588 129.82C171.588 123.124 173.586 119.776 177.798 119.776C181.956 119.776 183.9 123.097 183.9 129.712C183.9 136.408 181.902 139.324 177.69 139.324ZM175.8 129.712C175.8 134.383 176.367 135.976 177.798 135.976C179.148 135.976 179.688 134.41 179.688 129.82C179.688 125.149 179.121 123.124 177.69 123.124C176.34 123.124 175.8 125.122 175.8 129.712Z" fill="#260071"/>
<path d="M163.743 139V123.394H160.395V120.1H171.141V123.394H167.793V139H163.743Z" fill="#260071"/>
<path d="M147.532 139V120.1H151.474L154.768 127.255C154.903 127.552 155.146 127.498 155.146 127.174V120.1H158.764V139H156.496L151.528 128.875C151.393 128.578 151.15 128.632 151.15 128.956V139H147.532Z" fill="#260071"/>
<path d="M141.142 139V120.1H145.192V139H141.142Z" fill="#260071"/>
<path d="M389.087 108V89.1H393.893C398.51 89.1 400.697 92.097 400.697 98.496C400.697 104.949 398.483 108 393.785 108H389.087ZM393.137 104.706H393.677C395.702 104.706 396.485 103.005 396.485 98.604C396.485 94.122 395.675 92.394 393.569 92.394H393.137V104.706Z" fill="#260071"/>
<path d="M377.476 108V89.1H387.142V92.394H381.526V96.39H384.874V99.576H381.526V104.706H387.358V108H377.476Z" fill="#260071"/>
<path d="M361.304 108V89.1H365.516L368.243 97.929C368.324 98.226 368.567 98.253 368.648 97.929L370.7 89.1H375.128V108H371.132V99.333C371.132 99.063 370.862 98.982 370.781 99.279L368.405 106.92H367.595L365.219 99.279C365.138 98.982 364.868 99.063 364.868 99.333V108H361.304Z" fill="#260071"/>
<path d="M353.174 108.324C349.016 108.324 347.072 105.435 347.072 98.82C347.072 92.124 349.07 88.776 353.282 88.776C357.44 88.776 359.384 92.097 359.384 98.712C359.384 105.408 357.386 108.324 353.174 108.324ZM351.284 98.712C351.284 103.383 351.851 104.976 353.282 104.976C354.632 104.976 355.172 103.41 355.172 98.82C355.172 94.149 354.605 92.124 353.174 92.124C351.824 92.124 351.284 94.122 351.284 98.712Z" fill="#260071"/>
<path d="M340.424 108.324C336.428 108.324 334.538 105.435 334.538 98.82C334.538 92.178 336.482 88.776 340.424 88.776C343.745 88.776 345.608 91.26 345.365 96.174H341.963C342.071 93.366 341.558 92.124 340.532 92.124C339.236 92.124 338.75 94.122 338.75 98.712C338.75 103.383 339.29 104.976 340.64 104.976C341.801 104.976 342.314 103.734 342.017 100.251H345.446C346.013 105.867 344.042 108.324 340.424 108.324Z" fill="#260071"/>
<path d="M324.783 108V89.1H328.833V104.706H334.017V108H324.783Z" fill="#260071"/>
<path d="M313.172 108V89.1H322.838V92.394H317.222V96.39H320.57V99.576H317.222V104.706H323.054V108H313.172Z" fill="#260071"/>
<path d="M302.12 90.18H302.93L306.062 100.143C306.17 100.467 306.413 100.467 306.44 100.143L307.547 89.1H311.462L308.087 108H304.469L302.471 100.521C302.39 100.224 302.174 100.224 302.093 100.521L300.365 108H296.747L293.372 89.1H297.503L299.204 100.143C299.258 100.467 299.501 100.467 299.582 100.143L302.12 90.18Z" fill="#260071"/>
<path d="M282.648 108.324C278.841 108.324 276.762 105.489 277.383 101.196H280.785C280.488 103.518 281.109 105.03 282.54 105.03C283.647 105.03 284.295 104.085 284.295 102.654C284.295 101.466 283.782 100.845 282.135 100.17L280.65 99.549C278.328 98.577 277.221 96.93 277.221 94.473C277.221 91.044 279.354 88.776 282.54 88.776C285.942 88.776 287.913 91.26 287.67 95.094H284.322C284.43 93.231 283.863 92.07 282.648 92.07C281.703 92.07 281.163 92.853 281.163 94.041C281.163 95.121 281.622 95.661 283.053 96.255L284.997 97.065C287.211 97.983 288.237 99.63 288.237 102.222C288.237 105.948 286.05 108.324 282.648 108.324Z" fill="#260071"/>
<path d="M269.534 108.27C266.186 108.27 264.134 105.435 264.134 98.82C264.134 92.178 266.105 88.776 270.074 88.776C273.422 88.776 275.312 91.26 275.069 96.174H271.667C271.748 93.366 271.208 92.124 270.182 92.124C268.859 92.124 268.346 94.122 268.346 98.712C268.346 103.41 268.805 105.03 270.236 105.03C271.37 105.03 271.775 103.896 271.802 100.98H269.966V97.848H275.636V108H274.826L273.584 105.813C273.422 105.543 273.26 105.543 273.125 105.867C272.423 107.541 271.343 108.27 269.534 108.27Z" fill="#260071"/>
<path d="M256.331 108.324C252.173 108.324 250.229 105.435 250.229 98.82C250.229 92.124 252.227 88.776 256.439 88.776C260.597 88.776 262.541 92.097 262.541 98.712C262.541 105.408 260.543 108.324 256.331 108.324ZM254.441 98.712C254.441 103.383 255.008 104.976 256.439 104.976C257.789 104.976 258.329 103.41 258.329 98.82C258.329 94.149 257.762 92.124 256.331 92.124C254.981 92.124 254.441 94.122 254.441 98.712Z" fill="#260071"/>
<path d="M237.019 108V89.1H241.825C246.442 89.1 248.629 92.097 248.629 98.496C248.629 104.949 246.415 108 241.717 108H237.019ZM241.069 104.706H241.609C243.634 104.706 244.417 103.005 244.417 98.604C244.417 94.122 243.607 92.394 241.501 92.394H241.069V104.706Z" fill="#260071"/>
<path d="M219.545 108V89.1H224.351C228.968 89.1 231.155 92.097 231.155 98.496C231.155 104.949 228.941 108 224.243 108H219.545ZM223.595 104.706H224.135C226.16 104.706 226.943 103.005 226.943 98.604C226.943 94.122 226.133 92.394 224.027 92.394H223.595V104.706Z" fill="#260071"/>
<path d="M205.957 108V89.1H209.899L213.193 96.255C213.328 96.552 213.571 96.498 213.571 96.174V89.1H217.189V108H214.921L209.953 97.875C209.818 97.578 209.575 97.632 209.575 97.956V108H205.957Z" fill="#260071"/>
<path d="M197.979 94.689C197.925 94.365 197.655 94.365 197.601 94.689L196.656 101.736H199.248L197.979 94.689ZM191.931 108L195.792 89.1H200.598L204.459 108H200.355L199.788 104.814H196.251L195.819 108H191.931Z" fill="#260071"/>
<path d="M181.207 108.324C177.4 108.324 175.321 105.489 175.942 101.196H179.344C179.047 103.518 179.668 105.03 181.099 105.03C182.206 105.03 182.854 104.085 182.854 102.654C182.854 101.466 182.341 100.845 180.694 100.17L179.209 99.549C176.887 98.577 175.78 96.93 175.78 94.473C175.78 91.044 177.913 88.776 181.099 88.776C184.501 88.776 186.472 91.26 186.229 95.094H182.881C182.989 93.231 182.422 92.07 181.207 92.07C180.262 92.07 179.722 92.853 179.722 94.041C179.722 95.121 180.181 95.661 181.612 96.255L183.556 97.065C185.77 97.983 186.796 99.63 186.796 102.222C186.796 105.948 184.609 108.324 181.207 108.324Z" fill="#260071"/>
<path d="M167.54 108V92.394H164.192V89.1H174.938V92.394H171.59V108H167.54Z" fill="#260071"/>
<path d="M158.522 94.689C158.468 94.365 158.198 94.365 158.144 94.689L157.199 101.736H159.791L158.522 94.689ZM152.474 108L156.335 89.1H161.141L165.002 108H160.898L160.331 104.814H156.794L156.362 108H152.474Z" fill="#260071"/>
<path d="M146.596 108.324C142.6 108.324 140.71 105.435 140.71 98.82C140.71 92.178 142.654 88.776 146.596 88.776C149.917 88.776 151.78 91.26 151.537 96.174H148.135C148.243 93.366 147.73 92.124 146.704 92.124C145.408 92.124 144.922 94.122 144.922 98.712C144.922 103.383 145.462 104.976 146.812 104.976C147.973 104.976 148.486 103.734 148.189 100.251H151.618C152.185 105.867 150.214 108.324 146.596 108.324Z" fill="#260071"/>
</svg>
