<svg xmlns="http://www.w3.org/2000/svg" width="24.728" height="19.77" viewBox="0 0 24.728 19.77">  <path id="footer-li" d="M22.494,17.456a2.339,2.339,0,1,1,2.246-2.338A2.269,2.269,0,0,1,22.494,17.456Zm0-4.368a1.95,1.95,0,0,0-1.915,2.031,1.92,1.92,0,1,0,3.833,0A1.951,1.951,0,0,0,22.494,13.088Zm.646,3.264-.651-1.063-.009-.013h-.419v1.076h-.341V13.881h.9c.562,0,.835.227.835.7a.619.619,0,0,1-.609.666l-.046.006.7,1.1Zm-.023-1.793c0-.353-.3-.4-.556-.4h-.5V15h.4C22.819,15,23.118,14.964,23.118,14.558Zm-5.534,5.21H1.411a1.414,1.414,0,0,1-1.4-1.427V1.424A1.413,1.413,0,0,1,1.411,0H17.583a1.417,1.417,0,0,1,1.4,1.425V18.342A1.417,1.417,0,0,1,17.583,19.769ZM2.823,16.845H5.64V7.411H2.823ZM4.233,2.721A1.668,1.668,0,0,0,2.6,4.421a1.668,1.668,0,0,0,1.634,1.7,1.668,1.668,0,0,0,1.631-1.7A1.668,1.668,0,0,0,4.233,2.721Zm11.949,8.95c0-2.541-.526-4.494-3.377-4.494A2.938,2.938,0,0,0,10.143,8.7H10.1V7.411h-2.7v9.435h2.812V12.178c0-1.231.223-2.423,1.687-2.423,1.445,0,1.463,1.407,1.463,2.5v4.588h2.814Z" transform="translate(-0.012 0.001)" fill="#fff" fill-rule="evenodd" /></svg>