<svg xmlns="http://www.w3.org/2000/svg" width="20" height="20" viewBox="0 0 20 20">  <path id="footer-ig" d="M-269-82h-4.09a5.316,5.316,0,0,1-2.425-.453,4.813,4.813,0,0,1-1.818-1.213,6.339,6.339,0,0,1-1.212-1.818A5.32,5.32,0,0,1-279-87.909v-8.183a23.932,23.932,0,0,1,.453-2.425,4.78,4.78,0,0,1,1.212-1.815,4.818,4.818,0,0,1,1.818-1.215,5.316,5.316,0,0,1,2.425-.453h8.183c1.059.15,1.665.3,2.422.453a4.8,4.8,0,0,1,1.818,1.215,6.3,6.3,0,0,1,1.212,1.815A5.316,5.316,0,0,1-259-96.092v8.183a5.316,5.316,0,0,1-.456,2.425,4.807,4.807,0,0,1-1.212,1.818,6.351,6.351,0,0,1-1.818,1.213,5.311,5.311,0,0,1-2.422.453Zm-5.908-17.879a2.4,2.4,0,0,0-1.212.757,5.32,5.32,0,0,0-.756,1.212,4.328,4.328,0,0,0-.3,1.818v8.183a4.328,4.328,0,0,0,.3,1.818,2.384,2.384,0,0,0,.756,1.213,5.335,5.335,0,0,0,1.212.756,4.319,4.319,0,0,0,1.818.3h8.183a4.293,4.293,0,0,0,1.816-.3,2.384,2.384,0,0,0,1.212-.756,5.441,5.441,0,0,0,.759-1.213,4.374,4.374,0,0,0,.3-1.818v-8.183a4.374,4.374,0,0,0-.3-1.818,2.4,2.4,0,0,0-.759-1.212,5.291,5.291,0,0,0-1.212-.757,4.314,4.314,0,0,0-1.816-.3h-8.183A4.34,4.34,0,0,0-274.909-99.879Zm.756,7.88A5.11,5.11,0,0,1-269-97.151,5.206,5.206,0,0,1-263.849-92,5.107,5.107,0,0,1-269-86.85,5.109,5.109,0,0,1-274.153-92Zm1.818,0A3.361,3.361,0,0,0-269-88.668,3.361,3.361,0,0,0-265.667-92,3.364,3.364,0,0,0-269-95.333,3.364,3.364,0,0,0-272.334-92Zm7.427-5.3a1.211,1.211,0,0,1,1.209-1.213,1.212,1.212,0,0,1,1.212,1.213,1.21,1.21,0,0,1-1.212,1.212A1.209,1.209,0,0,1-264.908-97.3Z" transform="translate(278.999 102)" fill="#fff" /></svg>