<svg xmlns="http://www.w3.org/2000/svg" width="22" height="15.4" viewBox="0 0 22 15.4">  <path id="footer-yt" d="M21.756,3.274A5.6,5.6,0,0,0,20.9,1.091a3.683,3.683,0,0,0-2.2-.97C15.644,0,11,0,11,0h0S6.356,0,3.3.243a2.624,2.624,0,0,0-2.2.97A4.717,4.717,0,0,0,.244,3.274,31.3,31.3,0,0,0,0,6.912v1.7a30.644,30.644,0,0,0,.244,3.517A5.6,5.6,0,0,0,1.1,14.309a4.24,4.24,0,0,0,2.444.97C5.256,15.4,11,15.4,11,15.4s4.644,0,7.7-.243a2.624,2.624,0,0,0,2.2-.97A5.008,5.008,0,0,0,21.756,12,27.305,27.305,0,0,0,22,8.609v-1.7A31.3,31.3,0,0,0,21.756,3.274ZM8.678,10.792V4.608l5.867,3.031Z" fill="#fff" /></svg>