<svg xmlns="http://www.w3.org/2000/svg" width="22" height="18" viewBox="0 0 22 18">  <path id="footer-tw" d="M22,2.17a7.952,7.952,0,0,1-2.625.766,5.079,5.079,0,0,0,2-2.553A11.324,11.324,0,0,1,18.5,1.532,4,4,0,0,0,15.25,0a4.53,4.53,0,0,0-4.5,4.6,2.538,2.538,0,0,0,.125,1.021A12.983,12.983,0,0,1,1.5.894a4.479,4.479,0,0,0-.625,2.3,4.37,4.37,0,0,0,2,3.83,4.088,4.088,0,0,1-2-.638h0A4.4,4.4,0,0,0,4.5,10.851a1.826,1.826,0,0,1-1.125.255,2.086,2.086,0,0,1-.875-.128A4.6,4.6,0,0,0,6.75,14.17a8.608,8.608,0,0,1-5.625,1.915A3.392,3.392,0,0,1,0,15.957,12.805,12.805,0,0,0,6.875,18c8.25,0,12.875-7.021,12.875-13.149V4.213A4.908,4.908,0,0,0,22,2.17Z" fill="#fff" /></svg>