<svg id="logo-sticky" xmlns="http://www.w3.org/2000/svg" width="153.609" height="64.209" viewBox="0 0 153.609 64.209">
  <g id="Group_12816" data-name="Group 12816" transform="translate(2.708)">
    <g id="Group_12812" data-name="Group 12812" transform="translate(18.895 11.545)">
      <path id="Path_40632" data-name="Path 40632" d="M337.044,78.105a1.32,1.32,0,0,0-1.369-1.352c-1.606.072-1.532,1.352-1.532,1.352V91.546s.159,1.092-.439,1.143c-.91.058-1.48-.922-2.009-1.519-1.287-1.45-8.915-10.227-9.575-10.935-.066-.07-.531-.6-.663-.337V90.466a2.182,2.182,0,0,0,.216,1.136,3.663,3.663,0,0,0,1.31,1.088h-10.4c.322-.244,1.525-.668,1.312-1.4-.1-.343-1.343-4.044-1.343-4.044H307.5l-1.257,3.265-1.327,0,5.3-14.018h2.817s5.6,14.463,5.856,14.805a.882.882,0,0,0,1,.394c.183-.058.326-.483.326-.611,0-2.72.03-12.336,0-12.843a1.872,1.872,0,0,0-1.654-1.783h5.6s6.576,7.45,7.876,8.808c.078.082.813.977.813.451,0-.351.062-7.848-.03-8.195-.155-.547-1.274-1.065-1.274-1.065,1.8,0,10.612.037,13.221-.009,3.235-.056,6.76,1.517,8.1,4.626a9.9,9.9,0,0,1,.5,5.528,6.838,6.838,0,0,1-2.972,4.517c-3.309,2.205-7.558,1.672-11.767,1.752-1.2.022-3.7,0-3.7,0a5.563,5.563,0,0,0,1.759-1.12,2.353,2.353,0,0,0,.347-.655Zm4.306,11.476c0,1,.182,1.665,1,1.942a5.118,5.118,0,0,0,2.471-.009,4.979,4.979,0,0,0,2.633-1.454,7.913,7.913,0,0,0,1.7-5.5c-.068-2.518-.933-5.306-3.3-6.5a5.8,5.8,0,0,0-4.513-.352ZM309.985,81l-1.93,4.814h3.954Z" transform="translate(-243.649 -71.326)" fill="#fff"/>
      <path id="Path_40633" data-name="Path 40633" d="M238.235,88.977a9.871,9.871,0,0,1-2.13,2.565,4.786,4.786,0,0,1-4.575.074V77.6s.033-.74,1.435-1.063H219.324c.39.328.917.659.992,1.2a1.907,1.907,0,0,1-.679,1.4c-.226.237-3.753,3.77-4.605,4.585V78.307a1.631,1.631,0,0,1,1.4-1.714h-7.269a3.925,3.925,0,0,1,1.442.787,4.163,4.163,0,0,1,.454,2.7V90.619c0,.27.008,1.087-.466,1.049-.5-.034-.682-.749-.834-1.125-.248-.616-5.627-13.971-5.646-14.018h-2.554c-.015.019-6.11,14.9-6.24,15.174-.116.244-.273.565-1.211,1.074h4.275s-.833-.338-.851-.951a30.606,30.606,0,0,1,1.338-4.434h5s1.555,4.025,1.366,4.372c-.279.517-1.449,1.013-1.449,1.013h12.883a4.381,4.381,0,0,1-.686-.452c-1.079-1.046-1.052-2.927-1.053-4.386,0-.459.033-2.082.1-2.346.07-.248.346-.151.473,0,.3.355,4.652,5.849,4.734,5.976.409.636-.448,1.052-.93,1.21h18.325C237.666,92.772,238.235,88.977,238.235,88.977Zm-38.857-3.135,1.826-4.719,1.894,4.719Zm27.748,6.168s-.638.762-1.248.139c-.547-.557-7.183-9.234-7.47-9.642-.139-.2-.166-.19-.024-.331a33.38,33.38,0,0,1,4.579-4.561,6.593,6.593,0,0,1,1.368-.692,3.293,3.293,0,0,1,1.384-.253,1.442,1.442,0,0,1,1.412,1.387Z" transform="translate(-172.588 -71.382)" fill="#fff"/>
      <path id="Path_40634" data-name="Path 40634" d="M157.725,72.166a10.629,10.629,0,0,0-2.08-5.631,11.787,11.787,0,0,0-4.866-3.441,13.255,13.255,0,0,0-11.593.951,9.88,9.88,0,0,0-4.053,4.355,12.156,12.156,0,0,0-.931,6.267,10.323,10.323,0,0,0,2.209,5.579,12.1,12.1,0,0,0,4.937,3.342,13.256,13.256,0,0,0,11.368-1.036,9.913,9.913,0,0,0,4-4.245,12.064,12.064,0,0,0,1.007-6.143C157.514,70.085,157.762,72.54,157.725,72.166Zm-5.878,3.762a9.644,9.644,0,0,1-1.408,5.1,5.541,5.541,0,0,1-9.461-.828c-1.034-2.1-.985-4.611-1.029-6.9.043-2.252,0-4.711.977-6.792a5.53,5.53,0,0,1,10-.109c1.035,2.1.985,4.612,1.029,6.9-.016.877-.06,1.754-.1,2.63C151.786,77.124,151.891,75.052,151.847,75.928Z" transform="translate(-134.121 -62.188)" fill="#fff"/>
    </g>
    <g id="Group_12813" data-name="Group 12813" transform="translate(121.159 0.408)">
      <path id="Path_40635" data-name="Path 40635" d="M435.08,32.725a.108.108,0,0,0-.027-.013.185.185,0,0,0-.028-.009A.232.232,0,0,0,435,32.7l-.029,0h-.178l-.029,0-.028-.005-.027-.01-.025-.014-.023-.019-.022-.025a.439.439,0,0,1,.029-.06.485.485,0,0,1,.035-.055l.039-.05c.015-.016.03-.031.046-.046s.032-.029.048-.043l.052-.04.054-.038.054-.037.057-.036.057-.036.057-.037.055-.038c.019-.013.036-.027.052-.041s.035-.028.051-.042a.634.634,0,0,0,.048-.046c.014-.016.029-.032.043-.05s.047-.047.071-.07.049-.045.074-.067l.076-.062c.026-.02.052-.041.078-.059s.053-.038.081-.056.054-.034.083-.051.056-.032.084-.046.057-.028.087-.041.058-.025.088-.036.061-.021.091-.029.061-.017.092-.023.062-.013.094-.017.063-.008.1-.01.066,0,.1,0,.066,0,.1,0,.068.006.1.012a1.076,1.076,0,0,1,.157.007,1.317,1.317,0,0,1,.148.026c.048.012.1.026.142.043s.091.035.136.055.086.043.129.066.086.048.128.073.084.051.126.078l.123.079.124.077.124.074c.043.023.084.045.128.065s.086.039.129.055a1.25,1.25,0,0,0,.134.042,1.022,1.022,0,0,0,.141.026.994.994,0,0,0,.147.006,1.061,1.061,0,0,0,.155-.016c.047-.041.1-.08.144-.115s.1-.07.15-.1.1-.061.154-.088.106-.053.16-.077.108-.046.163-.067.111-.04.167-.058.113-.035.17-.051l.171-.046.173-.042.175-.039.175-.039.175-.039.174-.041.172-.044c.058-.015.114-.031.171-.049s.113-.036.168-.055a1.711,1.711,0,0,1,.2-.03,1.428,1.428,0,0,1,.191,0,1.505,1.505,0,0,1,.178.02,1.554,1.554,0,0,1,.168.041c.055.017.108.037.16.059s.1.046.153.072.1.055.148.084.1.06.145.091l.142.1.143.1c.047.032.1.064.144.095s.1.061.147.09.1.056.152.081.1.048.159.07.109.039.166.054a1.365,1.365,0,0,0,.177.036l.059.024.059.022.06.02.062.019.062.019.061.019.062.019.061.02.062.021.06.023.06.025c.02.008.039.017.057.027s.037.019.055.03.037.022.053.033.035.024.051.037.033.027.049.042a.1.1,0,0,1-.006.025c0,.008-.007.015-.01.023a.108.108,0,0,1-.015.02.09.09,0,0,1-.016.017l-.02.015-.023.013-.025.011-.027.01-.028.009-.028.008-.028.008-.03.007-.027.008-.027.008-.027.009-.023.01H435.08Z" transform="translate(-429.094 -31.142)" fill="#fff"/>
      <path id="Path_40636" data-name="Path 40636" d="M465.589,34.65l.046-.028.048-.029.051-.031.052-.032.053-.033.055-.034.057-.034.058-.034.056-.034.058-.033.057-.031.057-.029.057-.028.055-.025.054-.022.053-.019.094-.014.1-.012.1-.009.1-.006.1,0h.1l.1,0,.1.008.1.011.095.015.094.019c.031.006.06.015.091.023l.089.028c.03.01.058.021.086.033s.057.024.084.038.055.028.082.042a.171.171,0,0,0,0,.032c0,.01.005.02.008.029a.266.266,0,0,0,.011.027c0,.009.009.017.014.025a.272.272,0,0,0,.015.023l.017.021.017.019.017.018a.218.218,0,0,1,.015.017l.014.015a.061.061,0,0,1,.01.014l.008.013a.027.027,0,0,1,0,.012.019.019,0,0,1,0,.012.022.022,0,0,1-.006.011.072.072,0,0,1-.015.011h-2.485Z" transform="translate(-448.943 -33.058)" fill="#fff"/>
      <path id="Path_40637" data-name="Path 40637" d="M444.461,39.082l.09.038.091.037.091.037.089.037.088.038.088.038.086.041.085.041.084.044.083.047.081.049.081.053.079.056c.027.019.053.04.079.061l.076.065c.026.023.051.046.075.07a.253.253,0,0,1,0,.042.284.284,0,0,1,0,.037.152.152,0,0,1-.01.032.261.261,0,0,1-.015.028c-.006.009-.014.016-.021.024a.27.27,0,0,1-.024.02l-.027.018-.031.015-.032.014-.034.013-.034.012-.033.012-.033.012-.03.013-.028.014-.024.017H426.7a.323.323,0,0,0-.051-.014.407.407,0,0,0-.053-.008c-.017,0-.036,0-.054,0s-.036,0-.055,0l-.057,0-.057.005-.057.007-.057.005-.056.005-.055,0h-.053l-.052-.005-.05-.01a.315.315,0,0,1-.047-.016.228.228,0,0,1-.044-.024.251.251,0,0,1-.042-.032.845.845,0,0,1,.069-.066c.024-.019.049-.037.074-.054a.856.856,0,0,1,.078-.045c.026-.014.055-.026.082-.037l.085-.03c.03-.009.059-.018.088-.025l.089-.023.091-.02.09-.02.09-.021.088-.023c.03-.009.059-.018.087-.028l.086-.033a.737.737,0,0,0,.081-.041.82.82,0,0,0,.079-.048.769.769,0,0,0,.074-.059c.009-.015.019-.029.028-.042s.02-.027.031-.04a.4.4,0,0,1,.032-.039c.011-.013.022-.025.033-.037l.035-.035.036-.032.039-.03.039-.028.041-.025.041-.023.043-.021.042-.019.044-.016.045-.014.044-.01.045-.009h16.656Z" transform="translate(-423.464 -36.234)" fill="#fff"/>
      <path id="Path_40638" data-name="Path 40638" d="M444.358,45.484l.023,0h.023l.023,0h.022l.023,0h.023l.023,0h.045l.023,0,.023,0,.023,0h.022l.023,0h.023l.022,0c.015.016.031.032.046.048s.028.033.042.05.025.035.037.053.023.036.033.054.02.037.029.056.019.038.027.057l.022.059c.006.02.013.04.018.061s.01.041.015.062.008.041.01.062.006.042.008.064,0,.043,0,.064,0,.043,0,.066v.065c0,.021,0,.043,0,.065s0,.044-.006.066l-.006.007-.007.008-.007.006-.008.006-.006.007-.007.007-.006.007-.007.007-.006.006-.008.007-.007.007-.006.006-.006.007-.008.007-.006.007-.007.007-1.464.005-1.465.005-1.465.005-1.464.005-1.465,0-1.465.005-1.464.005-1.466.006-1.465.005-1.465.006-1.464,0-1.465.005-1.464.005-1.466.006-1.465.005-1.465,0a.213.213,0,0,1-.036-.017.26.26,0,0,1-.028-.022.194.194,0,0,1-.021-.024.117.117,0,0,1-.015-.026.152.152,0,0,1-.009-.029.132.132,0,0,1,0-.032.237.237,0,0,1,0-.032c0-.011,0-.023,0-.034a.224.224,0,0,1,.006-.034.235.235,0,0,1,.007-.035l.01-.036.01-.034c0-.011.006-.023.009-.033s.006-.022.009-.033.005-.021.007-.03,0-.02.005-.029.011-.028.018-.043l.018-.044.019-.045c.006-.015.013-.031.02-.047s.014-.031.022-.047.014-.031.021-.047.016-.031.024-.046.016-.031.025-.046l.027-.043.028-.042.031-.039.032-.037.036-.034.038-.03.041-.026a.351.351,0,0,1,.044-.021h22.5Z" transform="translate(-420.571 -40.321)" fill="#fff"/>
      <path id="Path_40639" data-name="Path 40639" d="M445.946,51.868l.027.011.028.009.029.005.03,0h.121l.029,0,.028,0,.026.008a.1.1,0,0,1,.024.012l.023.016a.167.167,0,0,1,.019.022.125.125,0,0,1,.016.028.2.2,0,0,1,.014.034c0,.024,0,.048,0,.073s0,.049,0,.075,0,.051,0,.076,0,.051,0,.077,0,.052,0,.078,0,.052-.005.078-.006.051-.009.076-.008.051-.014.075-.011.049-.018.072-.014.047-.021.069-.018.044-.028.066-.022.041-.034.061-.027.038-.041.056a.48.48,0,0,1-.048.051.582.582,0,0,1-.055.043.513.513,0,0,1-.064.037l-.048,0-.049,0-.048,0-.048,0-.048,0-.048,0-.049,0-.048,0-.048,0-.049,0-.048,0-.049,0-.048,0-.048,0-.049,0-.048,0-.4.005-.4,0-.4,0-.4,0-.4.005-.4,0-.4.005-.4,0-.4,0-.4,0-.4,0-.4,0-.4.005-.4,0-.4,0-.4,0h-4.177l-.379,0-.378,0-.381,0-.381.005-.382.006h-6.512l-.267,0h-.55l-.282,0-.287,0-.289,0-.291,0h-.585l-.292,0-.291,0-.29-.006-.286-.009-.283-.012-.277-.016-.274-.02-.014-.005-.015-.006-.014-.006-.015-.006-.015-.008-.015-.008-.014-.008-.014-.01-.014-.009-.013-.01-.012-.011-.012-.012a.072.072,0,0,1-.01-.013.084.084,0,0,1-.01-.013.1.1,0,0,1-.009-.015.062.062,0,0,1-.007-.015c0-.021,0-.041,0-.062s0-.04.006-.06,0-.039.008-.059.006-.039.011-.058.008-.038.013-.057.01-.036.015-.055.012-.037.018-.055.013-.036.02-.053.014-.036.021-.053.017-.035.024-.052l.026-.052.028-.051.028-.051.03-.051.031-.05c.01-.017.022-.033.032-.05a.468.468,0,0,1,.036-.044c.014-.014.028-.027.042-.038a.486.486,0,0,1,.045-.032l.048-.025a.533.533,0,0,1,.05-.021l.053-.017.055-.013.055-.011.056-.009.054-.008.055-.008.053-.008.052-.009.05-.011.047-.014c.015-.006.03-.01.044-.017h23.307Z" transform="translate(-420.691 -44.433)" fill="#fff"/>
      <path id="Path_40640" data-name="Path 40640" d="M446.356,58.6l.034,0,.037,0h.077l.04,0,.042,0,.041.006.042.007.042.009.041.011.041.014.04.016.039.019.037.022.035.025.032.028.055.065.054.066c.019.023.036.046.052.069s.035.047.052.07.033.048.048.072.031.048.046.073l.043.075c.013.025.026.051.038.076s.024.052.035.079.021.053.03.08.017.054.024.081.014.055.02.083.01.057.013.085,0,.057.006.086,0,.058,0,.088,0,.06-.008.089c-.017.01-.033.019-.05.028s-.033.016-.05.024l-.052.021c-.017.006-.035.013-.053.017l-.054.015-.054.012-.056.011-.057.009-.057.008-.057.005-.058.005-.058,0-.058,0-.057,0-.058,0-.056.005H421.784l-.018-.006-.02-.005-.02,0-.021,0-.021,0-.02,0-.021,0-.02,0-.02,0-.02-.006-.019-.006-.019-.009-.018-.01-.017-.013a.209.209,0,0,1-.015-.015.176.176,0,0,1-.015-.017c0-.012,0-.024,0-.035s.006-.023.008-.033.007-.022.011-.032a.226.226,0,0,1,.015-.031c0-.011.01-.02.016-.03l.02-.029.02-.029a.355.355,0,0,0,.022-.028l.022-.028.023-.028.022-.028.021-.029a.234.234,0,0,0,.02-.03.213.213,0,0,0,.017-.03.175.175,0,0,0,.015-.032.275.275,0,0,0,.012-.034.3.3,0,0,0,.011-.063.443.443,0,0,0,0-.066c0-.023,0-.046-.006-.07s-.006-.047-.011-.071-.009-.047-.014-.072-.01-.048-.016-.072-.01-.047-.015-.071-.01-.046-.013-.069-.007-.044-.009-.066,0-.042,0-.061a.381.381,0,0,1,.007-.057.3.3,0,0,1,.018-.052.248.248,0,0,1,.031-.046.229.229,0,0,1,.046-.038.332.332,0,0,1,.063-.03.414.414,0,0,1,.082-.02l1.526,0,1.528,0,1.526,0,1.527,0,1.527,0,1.527,0,1.527,0,1.527,0,1.528,0,1.527,0,1.526,0,1.528,0,1.526,0,1.527,0,1.528,0Z" transform="translate(-420.657 -48.749)" fill="#fff"/>
      <path id="Path_40641" data-name="Path 40641" d="M445.414,66.121l.023.007.025.006.026,0,.027,0,.027,0,.027,0,.028,0,.026,0,.025.006.024.007.023.01a.122.122,0,0,1,.021.013.1.1,0,0,1,.019.017.185.185,0,0,1,.017.02.161.161,0,0,1,.014.026.119.119,0,0,1,.01.03l0,.015,0,.016,0,.015-.005.016,0,.015-.005.015,0,.015,0,.016,0,.016,0,.015-.005.015,0,.016-.006.016,0,.015,0,.015,0,.016-.071.08-.07.08-.07.08-.071.08-.071.08-.07.08-.071.08-.07.081-.071.08-.07.08-.07.08-.071.08-.07.081-.07.08-.07.08-.071.081c-.053.01-.107.019-.161.028l-.164.021c-.055.006-.11.012-.166.016l-.168.012-.17.007-.172,0h-.519l-.175,0h-.348l-.173,0-.171,0-.171.007c-.057,0-.114.007-.169.012h-.435l-.436,0H437.93l-.435,0h-2.612l-.452,0h-1.865l-.476,0-.479,0-.482,0-.482,0-.482,0-.483,0h-.961l-.477,0-.474,0-.47,0h-.483l-.483,0h-.483l-.483,0-.483,0H424.4l-.483,0h-.483l-.484,0h-.483l-.482,0-.483,0h-.484l-.482,0-.483,0-.484,0h-.027l-.027-.006a.14.14,0,0,1-.025-.008.148.148,0,0,1-.026-.012l-.025-.014-.023-.016-.023-.019-.022-.02c-.006-.007-.014-.014-.021-.022s-.013-.015-.019-.023a.175.175,0,0,1-.019-.024l-.018-.024c-.005-.009-.011-.016-.016-.024s-.01-.016-.015-.024l-.014-.024-.013-.023c-.007-.028-.014-.054-.018-.081a.718.718,0,0,1-.015-.081.756.756,0,0,1-.008-.08c0-.028,0-.054,0-.081s0-.054,0-.08,0-.053.006-.079.005-.052.008-.079.007-.053.013-.079.01-.052.015-.077.01-.051.017-.077.013-.051.02-.076.015-.051.022-.075.017-.049.024-.075.016-.05.025-.074.016-.049.025-.072.017-.048.026-.072l.027-.032a.349.349,0,0,1,.028-.028.28.28,0,0,1,.03-.025.255.255,0,0,1,.031-.022l.033-.019.033-.016.035-.015.036-.012.037-.01.036-.009.037-.008.038-.008.038-.007.039-.008.038-.008.039-.008h25.468Z" transform="translate(-419.188 -53.573)" fill="#fff"/>
      <path id="Path_40642" data-name="Path 40642" d="M433.554,75.981l-.06-.024-.059-.026-.057-.028-.056-.031c-.019-.01-.038-.021-.056-.032l-.055-.033c-.019-.011-.037-.024-.055-.036l-.054-.036-.053-.038c-.019-.013-.036-.025-.053-.039l-.053-.039-.054-.041-.054-.041-.056-.041-.056-.042-.056-.042c-.036-.021-.07-.041-.1-.062l-.1-.061-.1-.062-.1-.061-.1-.062-.1-.062-.1-.062-.1-.062-.1-.062-.1-.063-.1-.064-.1-.065-.1-.065-.1-.067-.1-.067-.1-.069-.026-.014L431,74.366l-.029-.018-.03-.019-.03-.02-.03-.022-.03-.023-.029-.026-.028-.028c-.009-.009-.018-.019-.026-.029l-.024-.031c-.007-.011-.015-.022-.021-.034a.307.307,0,0,1-.018-.036.344.344,0,0,1-.025-.077.319.319,0,0,1-.006-.042h21.6a.859.859,0,0,1,.1.011.876.876,0,0,1,.095.021.746.746,0,0,1,.086.03c.027.012.053.025.078.039a.735.735,0,0,1,.071.046c.023.017.044.034.065.052s.041.038.061.059.037.041.056.062.037.044.054.067.035.046.052.07.034.047.051.071l.051.072.052.072c.017.024.035.047.053.071s.037.046.057.069l.06.066c.014.016.028.033.041.05l.037.052c.012.017.023.036.033.054s.021.037.03.056.018.038.027.057.015.039.023.058.014.04.02.06.012.041.017.061.011.041.015.062.008.042.012.062.006.042.01.063.005.042.007.063,0,.042.005.063,0,.042,0,.063,0,.042,0,.063,0,.042,0,.062a.3.3,0,0,1-.032.036.342.342,0,0,1-.034.029.318.318,0,0,1-.036.024l-.039.021-.041.016-.041.013-.044.01-.044.008-.044.006-.044,0-.043,0-.043,0-.043,0-.041,0-.04,0-.037.006h-19.4Z" transform="translate(-426.552 -58.601)" fill="#fff"/>
      <path id="Path_40643" data-name="Path 40643" d="M443.641,84.446a.42.42,0,0,0-.068-.014.638.638,0,0,0-.075-.006h-.082l-.087.005-.09.007-.092.008-.093.006-.092,0c-.031,0-.061,0-.091,0s-.06-.006-.088-.01a.578.578,0,0,1-.083-.02.48.48,0,0,1-.077-.032.417.417,0,0,1-.069-.044.421.421,0,0,1-.111-.138.513.513,0,0,1-.039-.1c-.021-.034-.041-.069-.06-.1s-.039-.069-.059-.1-.039-.069-.057-.1-.039-.069-.057-.1l-.057-.1-.057-.1-.057-.1c-.019-.034-.039-.069-.058-.1s-.039-.069-.057-.1l-.061-.1c-.019-.034-.041-.069-.061-.1l-.062-.1c-.021-.033-.044-.067-.065-.1l-.067-.1c-.023-.034-.046-.066-.07-.1s-.048-.066-.073-.1a.344.344,0,0,1-.02-.04.206.206,0,0,1-.011-.035.117.117,0,0,1,0-.06.086.086,0,0,1,.009-.024.091.091,0,0,1,.014-.022.142.142,0,0,1,.019-.02.16.16,0,0,1,.023-.017l.024-.015.028-.013.028-.013.029-.011.029-.01.028-.01.026-.01.024-.01h17.958l.038,0,.038.005.039.007.039.008.037.011a.3.3,0,0,1,.036.013.254.254,0,0,1,.033.015.24.24,0,0,1,.057.039.2.2,0,0,1,.022.025.143.143,0,0,1,.017.028.132.132,0,0,1,.01.031.16.16,0,0,1,0,.036.227.227,0,0,1,0,.039.191.191,0,0,1-.012.045.478.478,0,0,1-.021.05.876.876,0,0,1-.032.088c-.012.029-.025.057-.04.085s-.03.055-.045.082-.034.054-.053.08-.038.052-.058.077-.041.051-.062.075-.043.05-.065.073-.046.049-.069.072l-.072.07c-.023.023-.048.046-.073.069l-.074.068-.074.068-.073.066-.072.067c-.024.022-.047.044-.07.066l-.068.067a.388.388,0,0,0-.036.042.217.217,0,0,0-.023.047.209.209,0,0,0-.013.05.434.434,0,0,0,0,.053c0,.018,0,.036,0,.054s.005.036.007.055.008.037.011.056.008.037.011.055a.558.558,0,0,1,.01.055.455.455,0,0,1,.006.052c0,.018,0,.034,0,.05a.225.225,0,0,1-.007.047.156.156,0,0,1-.016.042.166.166,0,0,1-.027.038.2.2,0,0,1-.042.032.256.256,0,0,1-.056.026h-15.15Z" transform="translate(-433.424 -63.861)" fill="#fff"/>
      <path id="Path_40644" data-name="Path 40644" d="M461.624,91.337c.021,0,.042,0,.062,0a.56.56,0,0,1,.056,0c.019,0,.036.005.053.009l.048.015a.431.431,0,0,1,.044.02l.039.025a.237.237,0,0,1,.036.029.412.412,0,0,1,.033.033l.03.036a.408.408,0,0,1,.028.039c.009.014.016.027.025.041s.015.028.023.043a.429.429,0,0,1,.022.044c.006.015.013.03.02.045s.012.03.018.046.012.031.017.045.01.051.014.076l.01.075c0,.025,0,.05.005.075a.711.711,0,0,1,0,.074l0,.073c0,.025,0,.049-.008.072s-.006.047-.01.071-.009.046-.015.07-.012.045-.019.068-.014.045-.023.067-.017.044-.026.065-.02.044-.031.065-.023.041-.036.062-.024.041-.038.061l-.043.058-.047.057a.792.792,0,0,1-.055.06l-.059.056-.061.052-.062.048c-.021.017-.043.032-.064.047l-.065.044-.066.044-.065.042-.065.043-.064.044-.062.045-.059.047-.056.05c-.019.017-.037.035-.055.053s-.033.037-.049.057-.032.041-.046.061l-.919.007-.92.007-.919.007-.919.007-.92.007-.919.007-.919.006-.92.007-.92.007-.919.007-.919.007-.92.007-.92.006-.919.007-.919.007-.921.006a.306.306,0,0,1-.046-.035c-.014-.013-.026-.027-.038-.041a.361.361,0,0,1-.028-.044.326.326,0,0,1-.023-.048c-.005-.016-.01-.033-.015-.051s-.008-.035-.011-.053a.552.552,0,0,1-.007-.055c0-.019,0-.038-.006-.057s0-.038,0-.057,0-.039,0-.058,0-.039-.005-.058,0-.037-.006-.056-.006-.038-.01-.056-.009-.036-.015-.053a.374.374,0,0,0-.02-.051.408.408,0,0,0-.027-.048c0-.032,0-.065,0-.1s0-.066-.005-.1-.006-.066-.009-.1-.008-.067-.012-.1-.007-.068-.012-.1-.009-.069-.014-.1-.009-.069-.014-.1l-.013-.1c0-.035-.01-.069-.013-.1s-.006-.07-.01-.1-.006-.069-.009-.1-.006-.07-.006-.1,0-.07,0-.1,0-.069,0-.1,0-.069,0-.1.006-.069.01-.1h15.759Z" transform="translate(-436.286 -69.741)" fill="#fff"/>
      <path id="Path_40645" data-name="Path 40645" d="M447.823,104.072l-.012-.01-.011-.011-.012-.01-.012-.011-.012-.01-.012-.011-.012-.011-.013-.01-.012-.01-.012-.011-.012-.01-.012-.011-.012-.01-.012-.01-.012-.011-.012-.011c-.006-.06-.01-.121-.015-.182s-.008-.122-.011-.184-.006-.124-.008-.185-.005-.126-.006-.188,0-.125,0-.188,0-.126,0-.189,0-.127,0-.19,0-.127,0-.19,0-.126,0-.189,0-.126,0-.189,0-.124,0-.187,0-.124,0-.186,0-.123,0-.184,0-.121,0-.181,0-.119-.006-.178-.005-.118-.009-.176c.013-.016.025-.031.039-.045a.4.4,0,0,1,.042-.037.493.493,0,0,1,.044-.029.449.449,0,0,1,.047-.021.383.383,0,0,1,.049-.016l.051-.01.052-.006.054,0h.168l.058,0h.059l.059,0,.059-.006.059-.01h11.862a.479.479,0,0,0,.045.019.346.346,0,0,0,.048.013l.052.008a.372.372,0,0,0,.054.006l.055,0,.055,0,.056,0,.054,0c.018,0,.037,0,.053.007a.428.428,0,0,1,.051.01.362.362,0,0,1,.047.016.228.228,0,0,1,.043.022.3.3,0,0,1,.038.03.19.19,0,0,1,.032.038.274.274,0,0,1,.026.048.341.341,0,0,1,.02.06c0,.018,0,.035-.005.052l-.008.051c0,.017-.005.034-.008.051l-.01.051c0,.017-.008.033-.012.05l-.012.05c0,.016-.009.033-.014.048s-.009.032-.014.048l-.017.047-.016.046-.019.045a.375.375,0,0,1-.019.044c-.006.015-.014.029-.02.043s-.015.028-.022.042l-.023.039a.36.36,0,0,1-.024.039l-.069.028-.07.027-.071.025-.07.024-.071.023-.071.022-.072.02-.073.019-.074.016-.075.014-.076.012-.076.011-.077.006-.079,0h-.079l-.081,0a.643.643,0,0,1-.065-.005l-.062-.011-.06-.017-.058-.022c-.019-.008-.037-.017-.056-.026s-.037-.019-.056-.029l-.055-.032-.053-.035c-.018-.012-.036-.024-.053-.037l-.052-.038-.053-.038-.052-.039-.052-.038-.053-.037-.053-.035-.055-.032a.976.976,0,0,1-.121-.008,1,1,0,0,1-.12-.019c-.04-.009-.079-.018-.118-.029s-.077-.024-.115-.038-.078-.028-.115-.043l-.113-.047-.114-.047-.112-.046-.112-.042c-.038-.013-.076-.025-.114-.036a1.042,1.042,0,0,0-.113-.027c-.038-.007-.076-.013-.114-.017s-.077,0-.116,0a1.034,1.034,0,0,0-.117.014.8.8,0,0,0-.12.031.977.977,0,0,0-.121.051.846.846,0,0,1-.11.062.9.9,0,0,1-.114.045,1.172,1.172,0,0,1-.119.032c-.039.009-.079.015-.12.02s-.082.01-.123.013l-.124.007-.125,0-.125,0-.124.007c-.041,0-.082.007-.122.013s-.08.012-.12.02-.078.019-.117.032a.9.9,0,0,0-.113.046.813.813,0,0,0-.108.063.774.774,0,0,0-.1.082.9.9,0,0,0-.1.1.639.639,0,0,1-.111.033.516.516,0,0,1-.1.011.46.46,0,0,1-.1-.008.756.756,0,0,1-.094-.024c-.03-.011-.06-.023-.089-.037s-.058-.031-.086-.048-.058-.035-.085-.053l-.085-.058-.085-.059c-.028-.019-.057-.038-.086-.056s-.058-.036-.088-.052a.758.758,0,0,0-.091-.043.893.893,0,0,0-.1-.032.715.715,0,0,0-.1-.017.6.6,0,0,0-.108,0,.639.639,0,0,0-.115.019l-.049-.019-.048-.02-.048-.02-.049-.022-.048-.021-.048-.021-.047-.021-.048-.021-.048-.021-.048-.019-.049-.019-.048-.019-.049-.017-.05-.017-.049-.014-.05-.013-.077,0c-.027,0-.052,0-.078,0s-.051,0-.077.007a.737.737,0,0,0-.075.011l-.073.017-.072.021-.07.027c-.023.009-.045.019-.067.03l-.065.035c-.021.012-.041.025-.061.039l-.057.043c-.019.016-.037.032-.054.048s-.034.034-.05.052-.031.036-.044.055a.668.668,0,0,0-.041.06c-.013.021-.024.042-.036.063-.022.048-.041.1-.058.146s-.031.1-.044.148-.023.1-.031.15-.014.1-.02.153-.009.1-.011.155,0,.1-.005.155,0,.1,0,.157,0,.105,0,.158,0,.105,0,.158,0,.106,0,.159,0,.105,0,.158,0,.105-.005.157-.006.1-.011.156-.011.1-.02.156-.018.1-.031.154-.026.1-.044.151h-3.575Z" transform="translate(-437.385 -75.783)" fill="#fff"/>
      <path id="Path_40646" data-name="Path 40646" d="M446.559,112.742l.075.112.074.113c.024.038.049.076.073.115s.049.076.072.115l.073.117c.024.039.047.077.071.117l.072.117c.024.039.049.077.071.117s.048.078.072.117.048.079.073.117l.073.117c.024.039.048.077.074.115l.074.115.075.113c.025.037.05.075.076.112s.052.074.077.11c.044.024.088.049.131.075s.085.054.127.083.083.058.124.089.083.062.122.094l.121.1.119.1c.041.034.08.069.119.1l.119.1.119.1.121.1c.04.033.081.066.122.1l.124.1c.042.031.084.061.127.09s.086.058.131.085.088.053.133.077.091.047.138.069l.01.013a.116.116,0,0,1,.008.014.076.076,0,0,1,.008.015l.006.015c0,.006,0,.011,0,.017s0,.011,0,.017a.113.113,0,0,1,0,.018c0,.006,0,.012,0,.019v.018c0,.006,0,.012,0,.019a.149.149,0,0,1,0,.019c0,.005,0,.012,0,.018a.13.13,0,0,1,0,.018c0,.006,0,.011,0,.017s0,.011-.006.017a.159.159,0,0,1-.007.016.848.848,0,0,1-.1.049.888.888,0,0,1-.1.04c-.035.01-.071.021-.107.029s-.074.015-.11.021-.074.009-.112.013-.076,0-.116.006h-.115l-.118,0-.118-.008-.118-.009-.119-.011-.119-.012-.117-.011-.116-.011-.117-.007c-.038,0-.075,0-.113,0l-.151-.042-.151-.045-.153-.048-.154-.048-.155-.047-.156-.044c-.052-.014-.1-.029-.157-.042s-.105-.026-.159-.037-.106-.023-.16-.032-.106-.018-.16-.024-.109-.012-.162-.016-.108-.006-.163-.006-.109,0-.164,0-.111.009-.167.017-.111.018-.168.031a1.67,1.67,0,0,0-.169.046c-.04.007-.079.015-.118.025l-.117.032-.116.036-.117.039-.117.041-.117.041-.116.041-.118.037c-.039.013-.078.024-.117.035s-.079.021-.119.029-.079.017-.119.023-.079.012-.121.016-.08.006-.121.008-.082,0-.123,0a1.232,1.232,0,0,1-.124-.014c-.041-.006-.084-.015-.126-.026a.411.411,0,0,1-.049-.02.4.4,0,0,1-.045-.025.351.351,0,0,1-.041-.03.484.484,0,0,1-.038-.033l-.036-.037c-.011-.013-.024-.026-.034-.039l-.033-.04-.03-.041-.031-.041-.031-.04c-.01-.014-.022-.027-.033-.04s-.023-.025-.034-.037a.458.458,0,0,0-.036-.034.336.336,0,0,0-.039-.031.419.419,0,0,0-.042-.027l-.046-.022-.182.037c-.061.013-.122.025-.185.037l-.188.035c-.062.011-.126.023-.19.032l-.193.03-.193.027c-.065.008-.129.016-.2.023s-.13.015-.2.02l-.2.015c-.065,0-.131.008-.2.01l-.2.005h-.193c-.064,0-.129,0-.192-.006l-.19-.014c-.063-.005-.126-.012-.189-.02s-.123-.017-.184-.027l-.01-.01-.008-.011a.059.059,0,0,1-.008-.012.048.048,0,0,1-.006-.013l0-.013a.048.048,0,0,1,0-.014.061.061,0,0,1,0-.014.111.111,0,0,1,0-.014.106.106,0,0,1,0-.015.067.067,0,0,1,0-.015.048.048,0,0,1,0-.014l0-.013a.057.057,0,0,1,.006-.013l.008-.012.008-.011.01-.009a.706.706,0,0,1,.072-.049c.025-.016.05-.031.075-.044s.051-.026.078-.037l.079-.032.08-.028.081-.027.082-.024.082-.024.083-.024.081-.027.079-.029c.027-.011.052-.021.078-.033l.076-.039c.024-.013.05-.028.075-.044s.048-.033.07-.051a.813.813,0,0,0,.068-.06c.024-.028.049-.057.077-.085s.055-.056.085-.083.059-.054.09-.08.063-.053.1-.08l.1-.079.1-.079.1-.08c.033-.027.066-.054.1-.083s.065-.055.1-.083.063-.057.093-.087.058-.06.086-.09.053-.063.079-.1.048-.066.07-.1.042-.069.061-.105a1.083,1.083,0,0,0,.048-.112,1.067,1.067,0,0,0,.035-.12l.024-.08c.008-.027.015-.053.021-.081s.014-.054.021-.081.012-.054.019-.081.013-.054.019-.081.013-.053.019-.079l.022-.078c.008-.025.016-.051.024-.076s.017-.05.027-.075.02-.048.032-.072a.707.707,0,0,1,.037-.068.635.635,0,0,1,.042-.066.591.591,0,0,1,.05-.061c.019-.02.037-.039.057-.058a.739.739,0,0,1,.066-.053.723.723,0,0,1,.073-.048h3.639Z" transform="translate(-432.39 -83.469)" fill="#fff"/>
    </g>
    <path id="Path_40647" data-name="Path 40647" d="M99.157,31.229a1.215,1.215,0,0,0,.194-.049,1.655,1.655,0,0,0,.191-.078c.064-.03.126-.064.189-.1s.126-.075.188-.115.125-.082.187-.123l.185-.125c.062-.041.123-.081.185-.119s.122-.075.183-.108.122-.063.183-.089a1.515,1.515,0,0,1,.183-.062.99.99,0,0,1,.183-.029.772.772,0,0,1,.367.067.991.991,0,0,1,.185.109,1.334,1.334,0,0,1,.186.17,2.057,2.057,0,0,1,.188.237,2.031,2.031,0,0,0,.168.2,2.255,2.255,0,0,0,.189.176c.067.056.136.108.207.157s.145.1.22.142.152.089.23.131.155.084.234.124l.234.122c.077.041.155.082.23.124s.15.086.222.131.142.092.211.141a2.329,2.329,0,0,1,.193.157,2.008,2.008,0,0,1,.173.176,1.683,1.683,0,0,1,.147.2,1.636,1.636,0,0,1,.2.489,2,2,0,0,1,.046.3,1.231,1.231,0,0,0,.15.1,1.291,1.291,0,0,0,.161.076c.055.023.112.042.17.059s.117.032.176.045l.18.037.183.032.183.03c.06.011.12.022.179.034s.117.026.173.041.113.034.166.054a1.488,1.488,0,0,1,.156.07,1.082,1.082,0,0,1,.144.09.948.948,0,0,1,.129.115,1.014,1.014,0,0,1,.112.143,1.135,1.135,0,0,1,.093.177,1.468,1.468,0,0,1,.07.213,2.24,2.24,0,0,1,.284.256,1.6,1.6,0,0,1,.2.258,1.352,1.352,0,0,1,.121.262,1.314,1.314,0,0,1,.058.265,1.587,1.587,0,0,1,.008.268,2.249,2.249,0,0,1-.032.27c-.015.09-.036.182-.057.272s-.048.183-.073.274-.051.183-.076.274-.047.184-.067.276-.035.184-.045.276a1.923,1.923,0,0,0-.012.276,1.507,1.507,0,0,0,.033.276,1.355,1.355,0,0,0,.09.275,1.562,1.562,0,0,0,.16.275,1.992,1.992,0,0,0,.241.273l0,.088,0,.089,0,.089,0,.088,0,.089,0,.089,0,.089,0,.089,0,.088,0,.089,0,.089,0,.089,0,.089,0,.088-.005.089,0,.089q-.425.065-.842.17t-.824.249q-.406.143-.8.321t-.775.389c-.254.14-.5.291-.747.452s-.482.33-.714.509-.458.367-.677.562-.433.4-.64.611-.405.429-.6.654-.375.455-.55.691-.343.479-.5.724-.307.5-.448.753-.27.514-.391.776-.232.527-.333.794-.19.537-.269.807-.147.543-.2.815c-.054.163-.1.324-.136.485s-.066.323-.086.482-.037.32-.046.48-.011.319-.01.477.009.318.019.477.025.316.043.475.036.316.057.474.044.316.067.474.047.315.07.474.046.316.067.474.039.317.056.475.029.317.04.476.014.318.015.478,0,.32-.014.48-.027.322-.051.483-.054.323-.093.485c.009.117.015.235.021.353s.01.238.014.358.007.24.01.361.006.241.011.361.009.24.015.359.015.239.025.357.023.235.038.35.034.231.055.344.047.225.076.334.063.217.1.323.082.208.131.309a2.937,2.937,0,0,0,.164.295,2.683,2.683,0,0,0,.2.277,2.634,2.634,0,0,0,.243.258,2.881,2.881,0,0,0,.288.237,3.283,3.283,0,0,0,.337.214l.1.026.1.027.108.027.109.029.11.032.109.036.107.039.1.043c.034.015.067.032.1.048s.064.034.095.053.059.039.087.059.054.044.079.066a.7.7,0,0,1,.069.074.664.664,0,0,1,.059.082.681.681,0,0,1,.046.09.641.641,0,0,1,.033.1c-.067-.013-.135-.024-.2-.033s-.138-.018-.209-.024-.141-.011-.213-.015-.144-.006-.216-.01l-.219,0h-.882l-.219,0-.216-.01c-.071,0-.143-.009-.213-.015s-.14-.015-.208-.024-.137-.02-.2-.033-.133-.028-.2-.044-.129-.037-.192-.058a.812.812,0,0,1-.015.123.749.749,0,0,1-.032.109.6.6,0,0,1-.046.1.675.675,0,0,1-.06.084.6.6,0,0,1-.071.071.549.549,0,0,1-.082.06.782.782,0,0,1-.09.05.765.765,0,0,1-.1.037.94.94,0,0,1-.1.028c-.035.007-.071.013-.107.017a1.02,1.02,0,0,1-.11.007c-.037,0-.074,0-.111,0s-.075-.006-.111-.011a1.089,1.089,0,0,1-.108-.02c-.036-.007-.071-.016-.106-.027s-.067-.023-.1-.036a2.973,2.973,0,0,0-.381-.237,2.584,2.584,0,0,0-.376-.159,2.444,2.444,0,0,0-.374-.091,2.6,2.6,0,0,0-.372-.033,2.961,2.961,0,0,0-.37.014c-.124.011-.247.029-.371.053s-.247.05-.371.081-.248.065-.372.1l-.374.108q-.189.055-.378.106c-.127.035-.254.067-.382.1s-.258.055-.387.075-.262.035-.394.043a3.458,3.458,0,0,1-.4,0,3.092,3.092,0,0,1-.408-.048A3.023,3.023,0,0,1,91.2,63.8l.015-.03.015-.03.015-.03.015-.031.015-.03.015-.03.015-.03.015-.031.015-.03.015-.03.015-.031.015-.03.015-.03.015-.03.015-.031.015-.03.249-.169.251-.17.251-.172.249-.175c.083-.059.165-.12.246-.18s.162-.122.242-.184.157-.126.235-.192.152-.131.225-.2.146-.137.215-.208.137-.143.2-.217.128-.15.189-.227.118-.157.172-.239.107-.166.155-.253.094-.175.135-.265.079-.185.114-.281.064-.2.09-.3c.009-.115.019-.23.028-.345s.02-.23.031-.345.021-.23.031-.343.019-.227.028-.341.015-.225.021-.337.01-.222.012-.332,0-.22,0-.327-.008-.214-.015-.319-.019-.21-.034-.312-.033-.2-.055-.3-.049-.2-.08-.293a2.972,2.972,0,0,0-.106-.283A2.663,2.663,0,0,0,94,55.239a2.949,2.949,0,0,0-.246-.228c-.052.028-.1.055-.158.081l-.161.078-.163.075-.163.074-.162.076c-.054.025-.107.051-.159.077s-.1.054-.155.082-.1.057-.15.087-.1.062-.142.095-.091.068-.134.1-.084.075-.122.114a1.428,1.428,0,0,0-.111.127,1.359,1.359,0,0,0-.1.14,1.482,1.482,0,0,0-.083.155,1.411,1.411,0,0,0-.067.173,1.85,1.85,0,0,0-.048.192.61.61,0,0,1-.082.059.4.4,0,0,1-.079.038.363.363,0,0,1-.075.018.3.3,0,0,1-.072,0,.329.329,0,0,1-.07-.015.5.5,0,0,1-.068-.028c-.022-.011-.044-.024-.066-.038s-.042-.03-.063-.047l-.063-.053c-.021-.018-.041-.038-.061-.057s-.041-.039-.062-.058l-.061-.057c-.02-.019-.041-.038-.062-.055s-.041-.034-.062-.049a.733.733,0,0,0-.063-.042.421.421,0,0,0-.064-.032,1.107,1.107,0,0,1-.206.037,1.184,1.184,0,0,1-.2,0,1.5,1.5,0,0,1-.2-.028,1.987,1.987,0,0,1-.193-.051c-.063-.02-.127-.042-.189-.066s-.123-.048-.184-.073l-.179-.074q-.089-.036-.174-.068c-.057-.02-.114-.038-.17-.053a1.22,1.22,0,0,0-.164-.033.8.8,0,0,0-.16,0,.688.688,0,0,0-.154.031.669.669,0,0,0-.149.074.814.814,0,0,0-.144.123,1.262,1.262,0,0,0-.138.18,2.082,2.082,0,0,0-.133.244l-.148.071-.145.069-.143.066-.141.062c-.047.02-.094.04-.141.057s-.093.035-.14.051-.093.031-.14.046-.094.026-.141.036-.094.021-.142.028-.1.013-.144.018-.1.006-.146.007-.1,0-.149-.005-.1-.01-.152-.018-.1-.019-.156-.032-.107-.029-.161-.047-.11-.039-.166-.063a.611.611,0,0,1-.089-.038.425.425,0,0,1-.071-.05.39.39,0,0,1-.058-.059.453.453,0,0,1-.046-.066.567.567,0,0,1-.036-.074.761.761,0,0,1-.028-.079c-.008-.027-.015-.055-.022-.084s-.013-.057-.019-.086l-.018-.088c-.005-.029-.011-.059-.018-.088s-.014-.059-.022-.087-.017-.058-.027-.086a.85.85,0,0,0-.035-.081.573.573,0,0,0-.044-.077.532.532,0,0,0-.056-.07.518.518,0,0,0-.07-.062c-.052-.042-.1-.083-.151-.126s-.1-.087-.142-.13-.091-.089-.135-.134-.087-.091-.129-.137-.082-.093-.123-.14l-.118-.141c-.039-.047-.077-.1-.115-.143s-.075-.1-.113-.144l-.112-.144-.112-.145L83.5,54.21l-.114-.142c-.038-.047-.077-.094-.117-.141l-.122-.138q-.062-.068-.126-.135c-.043-.044-.087-.088-.133-.131a1.115,1.115,0,0,0,.073-.175A1.139,1.139,0,0,0,83,53.172,1.309,1.309,0,0,0,83.014,53,1.477,1.477,0,0,0,83,52.824c-.006-.057-.015-.115-.025-.172s-.023-.114-.036-.17-.027-.113-.041-.169-.028-.111-.041-.166-.025-.11-.036-.164-.018-.108-.024-.162a1.459,1.459,0,0,1-.007-.158.939.939,0,0,1,.015-.155.789.789,0,0,1,.042-.151.83.83,0,0,1,.075-.147.973.973,0,0,1,.114-.143,1.224,1.224,0,0,1,.158-.139.918.918,0,0,0-.014-.118.752.752,0,0,0-.027-.109.74.74,0,0,0-.039-.1.856.856,0,0,0-.048-.091.922.922,0,0,0-.058-.086c-.02-.028-.042-.054-.065-.081s-.046-.052-.071-.077-.05-.051-.076-.075l-.08-.074-.081-.075-.082-.076c-.027-.027-.054-.053-.08-.08s-.053-.055-.078-.084-.051-.059-.074-.09-.047-.063-.069-.1-.043-.069-.062-.105a.8.8,0,0,0-.045-.088.821.821,0,0,0-.052-.078.923.923,0,0,0-.06-.073q-.031-.035-.065-.068c-.022-.023-.045-.044-.068-.065s-.046-.042-.069-.063l-.07-.061-.066-.062c-.022-.021-.042-.042-.062-.065a.819.819,0,0,1-.057-.067.8.8,0,0,1-.05-.074.663.663,0,0,1-.039-.078.513.513,0,0,1-.028-.087.593.593,0,0,1-.015-.1.737.737,0,0,1,0-.105.972.972,0,0,1,.017-.117,1.632,1.632,0,0,1,0-.271,1.663,1.663,0,0,1,.042-.255,1.809,1.809,0,0,1,.079-.242,2.371,2.371,0,0,1,.109-.231c.041-.076.085-.149.133-.222s.1-.144.15-.215.106-.141.161-.211.109-.14.164-.21.109-.139.161-.21.1-.141.152-.213.094-.144.135-.218a2.2,2.2,0,0,0,.113-.225,1.745,1.745,0,0,0,.083-.234A1.442,1.442,0,0,0,83,45.059,1.461,1.461,0,0,0,83,44.8a1.64,1.64,0,0,0-.044-.277l-.137-.13-.136-.13-.135-.129L82.419,44c-.044-.043-.086-.088-.127-.132s-.082-.089-.122-.134-.078-.091-.115-.138-.073-.093-.107-.141-.067-.1-.1-.145-.06-.1-.087-.15-.052-.1-.075-.155-.043-.106-.061-.161-.034-.11-.047-.167-.024-.115-.032-.175a1.68,1.68,0,0,1-.015-.182c0-.062,0-.125,0-.19a2.238,2.238,0,0,1,.076-.268,2.778,2.778,0,0,1,.107-.259c.04-.085.084-.169.13-.251s.1-.166.149-.248.106-.163.16-.244l.165-.242c.055-.081.11-.161.163-.243s.105-.163.154-.245.1-.165.139-.249.083-.169.117-.255a2.353,2.353,0,0,0,.09-.262,2.088,2.088,0,0,0,.055-.272,1.85,1.85,0,0,0,.013-.283,1.757,1.757,0,0,0-.034-.3,2.023,2.023,0,0,0-.088-.312,2.476,2.476,0,0,0-.15-.328,1.859,1.859,0,0,0,.254-.136,1.539,1.539,0,0,0,.5-.533,1.892,1.892,0,0,0,.1-.209c.032-.072.059-.145.084-.22s.048-.15.07-.227.042-.155.061-.232.04-.156.061-.234.043-.156.066-.233.05-.153.078-.227.06-.149.1-.221a2.046,2.046,0,0,1,.121-.21,1.673,1.673,0,0,1,.343-.376,1.824,1.824,0,0,1,.235-.16c.074-.046.147-.09.221-.133l.221-.129.221-.125.219-.124.217-.124c.072-.042.143-.083.215-.126s.141-.086.21-.129.139-.088.207-.135.135-.094.2-.142.132-.1.2-.15.127-.105.19-.161.123-.113.183-.172.118-.121.175-.186.113-.132.167-.2.107-.142.158-.218.1-.155.147-.237a2.02,2.02,0,0,1,.213-.145,2.08,2.08,0,0,1,.222-.112,2.119,2.119,0,0,1,.47-.136c.08-.014.161-.024.243-.03s.164-.009.247-.008.166,0,.25.01.167.015.25.028.166.025.249.04.165.033.247.051.163.039.243.059l.237.063.231.066.222.066.212.062.2.056a1.658,1.658,0,0,1,.146-.2,1.733,1.733,0,0,1,.164-.164,1.881,1.881,0,0,1,.18-.137,2.178,2.178,0,0,1,.191-.114c.065-.035.132-.067.2-.1s.137-.058.206-.085.138-.053.208-.078l.208-.075c.069-.026.137-.051.2-.078s.133-.056.2-.086.128-.064.188-.1a1.754,1.754,0,0,0,.174-.117,1.423,1.423,0,0,0,.158-.141,1.355,1.355,0,0,0,.139-.168,1.449,1.449,0,0,0,.117-.2,1.663,1.663,0,0,0,.091-.239,1.94,1.94,0,0,1,.24-.08,2.03,2.03,0,0,1,.24-.049,2.368,2.368,0,0,1,.241-.022c.08,0,.16,0,.241,0s.16.014.24.025.161.026.241.043.16.037.241.057.161.044.242.069l.242.076.243.081.243.081c.081.027.162.054.244.079s.162.05.244.074.163.044.245.064.164.037.246.051.164.027.246.035l.048.03.047.03.048.031.048.03.048.03.047.03.048.03.047.03.048.03.048.031.048.03.047.03.048.03.048.03.048.03Z" transform="translate(-81.45 -30.004)" fill="#fff"/>
    <g id="Group_12814" data-name="Group 12814" transform="translate(9.187 35.332)">
      <line id="Line_114" data-name="Line 114" x2="128.715" transform="translate(0 0.244)" fill="#fff"/>
      <rect id="Rectangle_3140" data-name="Rectangle 3140" width="128.715" height="0.487" fill="#fff"/>
    </g>
    <g id="Group_12815" data-name="Group 12815" transform="translate(9.636 45.14)">
      <line id="Line_115" data-name="Line 115" x2="128.715" transform="translate(0 0.244)" fill="#fff"/>
      <rect id="Rectangle_3141" data-name="Rectangle 3141" width="128.715" height="0.487" fill="#fff"/>
    </g>
    <path id="Path_40648" data-name="Path 40648" d="M113.505,140.093a3.963,3.963,0,0,1-1.644.3,2.906,2.906,0,0,1-3.067-3.159,3.093,3.093,0,0,1,3.252-3.27,3.369,3.369,0,0,1,1.478.277l-.2.656a2.847,2.847,0,0,0-1.247-.259,2.315,2.315,0,0,0-2.429,2.568,2.256,2.256,0,0,0,2.383,2.5,3.239,3.239,0,0,0,1.322-.258Z" transform="translate(-98.985 -96.667)" fill="#fff"/>
    <path id="Path_40649" data-name="Path 40649" d="M137.474,139.732c-1.266,0-1.986-1.21-1.986-2.522,0-1.348.665-2.6,2-2.6s1.986,1.293,1.986,2.531c0,1.414-.721,2.586-2,2.586Zm-.019.656c1.58,0,2.882-1.145,2.882-3.279a2.836,2.836,0,0,0-2.809-3.15c-1.662,0-2.882,1.293-2.882,3.27a2.849,2.849,0,0,0,2.8,3.159Z" transform="translate(-115.563 -96.667)" fill="#fff"/>
    <path id="Path_40650" data-name="Path 40650" d="M165.123,134.241v3.7c0,1.385.619,1.976,1.45,1.976.914,0,1.515-.609,1.515-1.976v-3.7h.813v3.64c0,1.912-1.006,2.688-2.355,2.688-1.274,0-2.236-.72-2.236-2.66v-3.668Z" transform="translate(-134.585 -96.848)" fill="#fff"/>
    <path id="Path_40651" data-name="Path 40651" d="M191.916,140.467v-6.226h.886l1.986,3.15a16.733,16.733,0,0,1,1.108,2.023l.028-.009c-.074-.831-.093-1.589-.093-2.55v-2.614h.757v6.226h-.813l-1.977-3.159a18.145,18.145,0,0,1-1.155-2.078l-.028.009c.046.785.056,1.534.056,2.568v2.66Z" transform="translate(-152.288 -96.848)" fill="#fff"/>
    <path id="Path_40652" data-name="Path 40652" d="M218.632,134.925h-1.894v-.684h4.61v.684h-1.9v5.542h-.813Z" transform="translate(-168.205 -96.848)" fill="#fff"/>
    <path id="Path_40653" data-name="Path 40653" d="M241.582,140.467v-2.641l-1.977-3.585h.923l.878,1.718c.231.471.425.849.619,1.284h.018c.166-.406.388-.814.628-1.284l.9-1.718h.9l-2.078,3.576v2.65Z" transform="translate(-182.869 -96.848)" fill="#fff"/>
    <path id="Path_40654" data-name="Path 40654" d="M281.968,137.733c-.046-.869-.1-1.921-.1-2.689h-.019c-.222.721-.471,1.506-.785,2.365l-1.1,3.021h-.61l-1.016-2.965c-.3-.887-.536-1.682-.711-2.421h-.018c-.019.776-.065,1.811-.121,2.753l-.166,2.669h-.767l.434-6.226h1.026l1.062,3.012c.259.766.462,1.45.628,2.1h.019c.166-.628.388-1.311.664-2.1l1.109-3.012h1.025l.388,6.226h-.794Z" transform="translate(-206.564 -96.848)" fill="#fff"/>
    <path id="Path_40655" data-name="Path 40655" d="M309.427,134.241v6.226h-.813v-6.226Z" transform="translate(-227.122 -96.848)" fill="#fff"/>
    <path id="Path_40656" data-name="Path 40656" d="M329.393,140.093a3.963,3.963,0,0,1-1.644.3,2.905,2.905,0,0,1-3.067-3.159,3.093,3.093,0,0,1,3.251-3.27,3.374,3.374,0,0,1,1.479.277l-.2.656a2.844,2.844,0,0,0-1.247-.259,2.315,2.315,0,0,0-2.429,2.568,2.256,2.256,0,0,0,2.383,2.5,3.234,3.234,0,0,0,1.32-.258Z" transform="translate(-237.426 -96.667)" fill="#fff"/>
    <path id="Path_40657" data-name="Path 40657" d="M352.353,134.241v2.605h3.011v-2.605h.814v6.226h-.814v-2.919h-3.011v2.919h-.813v-6.226Z" transform="translate(-254.649 -96.848)" fill="#fff"/>
    <path id="Path_40658" data-name="Path 40658" d="M380.059,134.241v6.226h-.814v-6.226Z" transform="translate(-272.415 -96.848)" fill="#fff"/>
    <path id="Path_40659" data-name="Path 40659" d="M400.433,140.075a5.648,5.648,0,0,1-1.922.342,2.923,2.923,0,0,1-3.2-3.141,3.117,3.117,0,0,1,3.371-3.214,3.892,3.892,0,0,1,1.561.286l-.2.656a3.1,3.1,0,0,0-1.376-.268,2.329,2.329,0,0,0-2.5,2.5,2.277,2.277,0,0,0,2.4,2.512,2.628,2.628,0,0,0,1.072-.166v-1.856h-1.256v-.648h2.051Z" transform="translate(-282.72 -96.732)" fill="#fff"/>
    <path id="Path_40660" data-name="Path 40660" d="M424.228,137.881l.61-1.8c.12-.379.222-.767.305-1.127h.027c.092.36.185.73.314,1.136l.619,1.793Zm2.041.628.665,1.958h.859l-2.124-6.226h-.97l-2.115,6.226h.831l.647-1.958Z" transform="translate(-300.207 -96.848)" fill="#fff"/>
    <path id="Path_40661" data-name="Path 40661" d="M450.576,140.467v-6.226h.886l1.986,3.15a16.757,16.757,0,0,1,1.109,2.023l.028-.009c-.075-.831-.093-1.589-.093-2.55v-2.614h.757v6.226h-.813l-1.976-3.159a18.3,18.3,0,0,1-1.156-2.078l-.026.009c.046.785.055,1.534.055,2.568v2.66Z" transform="translate(-318.157 -96.848)" fill="#fff"/>
  </g>
  <path id="Path_40662" data-name="Path 40662" d="M287.826,201.3a.31.31,0,0,0,.076-.074c.06-.075.061-.09-.014-.031C287.812,201.268,287.781,201.3,287.826,201.3Z" transform="translate(-211.07 -139.759)" fill="#fff"/>
  <g id="Group_12819" data-name="Group 12819" transform="translate(0 46.868)">
    <g id="Group_12817" data-name="Group 12817" transform="translate(52.503 3.955)">
      <path id="Path_40663" data-name="Path 40663" d="M220.258,172.172h2.147l2.075,7.194h.029l2.075-7.194h2.147v9.075h-1.277v-7.931h-.029l-2.293,7.931h-1.276l-2.293-7.931h-.029v7.931h-1.277Z" transform="translate(-220.258 -171.994)" fill="#fff"/>
      <path id="Path_40664" data-name="Path 40664" d="M254.918,176.392c0,2.287-.479,4.715-3.337,4.715s-3.337-2.428-3.337-4.715.479-4.716,3.337-4.716S254.918,174.1,254.918,176.392Zm-5.339,0c0,2.1.232,3.8,2,3.8s2-1.7,2-3.8-.232-3.8-2-3.8S249.579,174.294,249.579,176.392Z" transform="translate(-238.204 -171.676)" fill="#fff"/>
      <path id="Path_40665" data-name="Path 40665" d="M268.708,172.172h1.335l2.031,7.791h.029l2.031-7.791h1.335l-2.612,9.075h-1.625Z" transform="translate(-251.327 -171.994)" fill="#fff"/>
      <path id="Path_40666" data-name="Path 40666" d="M289.819,172.172H291.1v9.075h-1.277Z" transform="translate(-264.865 -171.994)" fill="#fff"/>
      <path id="Path_40667" data-name="Path 40667" d="M298.068,172.172h1.654l3.424,7.575h.029v-7.575h1.277v9.075H302.7l-3.323-7.346h-.029v7.346h-1.277Z" transform="translate(-270.155 -171.994)" fill="#fff"/>
      <path id="Path_40668" data-name="Path 40668" d="M325.214,174.37c-.058-.953-.464-1.779-1.727-1.779-1.77,0-2,1.7-2,3.8s.232,3.8,2,3.8,1.9-1.856,1.9-3.063h-2.046v-.915h3.207v4.715h-.958V179.7h-.029a2.287,2.287,0,0,1-2.234,1.411c-2.7,0-3.177-2.275-3.177-4.715,0-2.288.479-4.716,3.337-4.716,2.974,0,3.047,2.224,3.061,2.694Z" transform="translate(-284.315 -171.676)" fill="#fff"/>
      <path id="Path_40669" data-name="Path 40669" d="M351.977,172.172h5.354v.991h-4.077v2.847H357.1V177h-3.845v4.245h-1.277Z" transform="translate(-304.725 -171.994)" fill="#fff"/>
      <path id="Path_40670" data-name="Path 40670" d="M376.2,176.392c0,2.287-.479,4.715-3.337,4.715s-3.337-2.428-3.337-4.715.479-4.716,3.337-4.716S376.2,174.1,376.2,176.392Zm-5.339,0c0,2.1.232,3.8,2,3.8s2-1.7,2-3.8-.232-3.8-2-3.8S370.862,174.294,370.862,176.392Z" transform="translate(-315.979 -171.676)" fill="#fff"/>
      <path id="Path_40671" data-name="Path 40671" d="M392.418,172.172h3.352c1.625,0,2.655.839,2.655,2.275a2.1,2.1,0,0,1-1.6,2.288v.025a1.569,1.569,0,0,1,1.466,1.512l.087,1.55c.058,1,.246,1.258.551,1.423h-1.538a2.489,2.489,0,0,1-.348-1.309l-.087-1.411c-.1-1.246-.885-1.322-1.538-1.322H393.7v4.042h-1.277Zm1.277,4.118h1.262c.754,0,2.133,0,2.133-1.754,0-.89-.682-1.449-1.872-1.449H393.7Z" transform="translate(-330.658 -171.994)" fill="#fff"/>
      <path id="Path_40672" data-name="Path 40672" d="M412.194,172.172h1.277l1.581,7.422h.029l1.465-7.422h1.538l1.465,7.422h.029l1.582-7.422h1.277l-2.133,9.075h-1.552L417.33,173.9H417.3l-1.494,7.346h-1.553Z" transform="translate(-343.34 -171.994)" fill="#fff"/>
      <path id="Path_40673" data-name="Path 40673" d="M443.008,172.172h1.712l2.786,9.075H446.17l-.74-2.491h-3.308l-.769,2.491h-1.334Zm-.624,5.669h2.786l-1.321-4.385h-.029Z" transform="translate(-361.183 -171.994)" fill="#fff"/>
      <path id="Path_40674" data-name="Path 40674" d="M462.909,172.172h3.351c1.625,0,2.655.839,2.655,2.275a2.1,2.1,0,0,1-1.6,2.288v.025a1.568,1.568,0,0,1,1.465,1.512l.087,1.55c.058,1,.247,1.258.552,1.423h-1.538a2.487,2.487,0,0,1-.348-1.309l-.087-1.411c-.1-1.246-.885-1.322-1.538-1.322h-1.727v4.042h-1.277Zm1.277,4.118h1.262c.754,0,2.132,0,2.132-1.754,0-.89-.682-1.449-1.871-1.449h-1.524Z" transform="translate(-375.861 -171.994)" fill="#fff"/>
      <path id="Path_40675" data-name="Path 40675" d="M484.263,172.172h2.771c3.221,0,3.627,2.034,3.627,4.538,0,2.287-.653,4.537-3.5,4.537h-2.9Zm1.276,8.16h1.335c2.206,0,2.452-1.983,2.452-3.61,0-1.754-.131-3.635-2.452-3.635h-1.335Z" transform="translate(-389.555 -171.994)" fill="#fff"/>
    </g>
    <g id="Group_12818" data-name="Group 12818" transform="translate(0 0)">
      <path id="Path_40676" data-name="Path 40676" d="M205.057,192.152a.483.483,0,0,1,.409-.4,1.126,1.126,0,0,1,.664.076.455.455,0,0,1,.294.473,2.18,2.18,0,0,1-.1.383q-.077.217-.192.486t-.275.511q-.147.256-.287.511-.166.243-.287.428t-.224.313a.249.249,0,0,1-.255.076.372.372,0,0,1-.23-.153.219.219,0,0,1-.038-.255,6.161,6.161,0,0,0,.473-1.176,3.419,3.419,0,0,0,.1-.626A2.6,2.6,0,0,0,205.057,192.152Z" transform="translate(-157.655 -180.585)" fill="#fff"/>
      <path id="Path_40677" data-name="Path 40677" d="M95.388,198.1a.081.081,0,0,0-.042.073c0,.058.028.044.056-.029C95.416,198.1,95.416,198.072,95.388,198.1Z" transform="translate(-87.653 -184.659)" fill="#fff"/>
      <path id="Path_40678" data-name="Path 40678" d="M86.738,168.385a3.491,3.491,0,0,0-.673-.9l-.28-.291.056-.218c.168-.684.28-1.281.35-1.718a8.319,8.319,0,0,0,0-2.053,3.437,3.437,0,0,0-.575-1.267c-.112-.145-.266-.364-.336-.48a1.513,1.513,0,0,0-1.2-.8c-.8-.043-1.612.452-2.929,1.82a18.927,18.927,0,0,0-1.906,2.359,30.155,30.155,0,0,0-1.625,2.592c-.252.48-.323.568-.462.626a10.965,10.965,0,0,0-2.34,1.4c-.631.553-.911.975-.911,1.4,0,.277.14.553.28.553.042,0,.084.015.084.044s.028.029.07.014.056,0,.042.058a.171.171,0,0,0,.168.218A1.645,1.645,0,0,0,75,171.37a8.991,8.991,0,0,1,1.177-.961,2.335,2.335,0,0,1-.168.451,4.4,4.4,0,0,0-.532,2.578c.1.277.5.772.644.772a.29.29,0,0,1,.182.116c.14.146.252.146.364.029a6.607,6.607,0,0,0,.476-1.3,25.562,25.562,0,0,1,1.149-2.942c.35-.8.406-.888.561-.961a16.087,16.087,0,0,1,4.89-.975c0,.014-.21.524-.462,1.15A32.59,32.59,0,0,1,81.539,173c-.448.757-.462.8-.434.975s.294.568.35.539c.014-.015.07.014.112.058s.14.175.238.291c.14.175.182.189.35.189a.474.474,0,0,0,.295-.088,19.22,19.22,0,0,0,1.906-3.684c.35-.844.981-2.548,1.051-2.839a.872.872,0,0,1,.07-.16,1.041,1.041,0,0,1,.364.073,1.836,1.836,0,0,0,.42.087.339.339,0,0,1,.21.131l.112.131.1-.1A.191.191,0,0,0,86.738,168.385ZM84.8,164.716a18.807,18.807,0,0,1-.5,1.936l-.056.117-1.107.029a12.54,12.54,0,0,0-2.593.277c-.7.117-.673.131-.546-.088.168-.291.757-1.15,1.107-1.6,1.541-2.053,3.167-3.363,3.769-3.028C85.07,162.459,85.042,163.536,84.8,164.716Z" transform="translate(-73.902 -160.651)" fill="#fff"/>
      <path id="Path_40679" data-name="Path 40679" d="M117.35,164.2a20.222,20.222,0,0,1-1.261,3.116c-.532,1.15-1.177,2.665-1.6,3.728a21.477,21.477,0,0,0-1.149,4.252c-.042.306-.1.728-.126.917-.042.32-.028.378.042.48.056.073.126.131.168.131.112,0,.14.088.07.2s-.2.117-.434-.015c-.1-.058-.224-.131-.28-.175a5.123,5.123,0,0,1-.631-.844,4.632,4.632,0,0,1-.042-2.534c.126-.641.407-1.776.491-2.009.084-.19-.084,0-.939,1.179-1.625,2.242-1.962,2.563-2.34,2.228a1.974,1.974,0,0,0-.294-.175,1.045,1.045,0,0,1-.56-.6,2.087,2.087,0,0,1-.126-.859,4.464,4.464,0,0,1,.266-1.864,36.324,36.324,0,0,1,2.06-4.892c1.163-2.417,1.766-3.291,2.172-3.174.084.015.112.058.112.146,0,.058.014.1.042.087s.028.029.014.087q-.042.131.042.044c.056-.044.084-.029.14.029l.2.2c.294.292.056,1.02-1.079,3.407a38.441,38.441,0,0,0-2.1,5.053c-.112.349-.28.844-.364,1.121a4.193,4.193,0,0,0-.154.524c.07.073.757-.655,1.99-2.126.379-.437.813-.946.953-1.121a1.625,1.625,0,0,0,.42-.772,28.459,28.459,0,0,1,1.415-3.48c.336-.64,1.387-2.446,1.653-2.81a3.359,3.359,0,0,1,.323-.378c.168-.131.35-.1.378.044,0,.058.028.1.056.1s.028.058.014.117c-.028.087-.028.1.042.043s.084-.058.154,0c.042.044.084.088.112.088C117.293,163.7,117.378,163.994,117.35,164.2Z" transform="translate(-95.981 -162.302)" fill="#fff"/>
      <path id="Path_40680" data-name="Path 40680" d="M143.442,177.442c-.14-.262-.49-.67-.588-.67-.056,0-.154.248-.239.684a9.581,9.581,0,0,1-1.429,3.058c-.743,1.165-1.864,2.519-1.976,2.388a11.509,11.509,0,0,1,.6-2.941,7.343,7.343,0,0,0,.14-.728c.042-.335-.028-.452-.35-.641-.126-.073-.238-.16-.252-.218s-.056-.087-.154-.073-.21.131-.771.99a31.3,31.3,0,0,1-2.382,3.291c-.491.524-.5.524-.323-.233a15.007,15.007,0,0,1,1.822-3.873,3.72,3.72,0,0,0,.406-.757.388.388,0,0,0-.1-.2c-.07-.088-.1-.088-.182-.043s-.084.058-.042-.029.042-.1-.014-.1-.1-.058-.126-.117c-.112-.262-.378-.189-.729.2a11.322,11.322,0,0,0-2.13,3.7,3.2,3.2,0,0,0-.2,1.063,3.933,3.933,0,0,0,.028.743,1.306,1.306,0,0,0,.5.8,2.1,2.1,0,0,1,.322.262.477.477,0,0,0,.645.073,7.231,7.231,0,0,0,1.738-2.111,4.8,4.8,0,0,1,.28-.422.537.537,0,0,1,0,.233,1.9,1.9,0,0,0,.56,1.907,1.374,1.374,0,0,1,.266.218,1.694,1.694,0,0,0,.253.218c.294.2.715.087,1.219-.349a14.241,14.241,0,0,0,1.4-1.6,14.487,14.487,0,0,0,1.429-2.359,4.67,4.67,0,0,0,.519-1.456A1.2,1.2,0,0,0,143.442,177.442Z" transform="translate(-112.714 -170.989)" fill="#fff"/>
      <path id="Path_40681" data-name="Path 40681" d="M160.68,187.843c.084-.291.168-.568.182-.611.014-.058,0-.029-.056.073a4.616,4.616,0,0,0-.308.946C160.442,188.542,160.512,188.382,160.68,187.843Z" transform="translate(-129.421 -177.677)" fill="#fff"/>
      <path id="Path_40682" data-name="Path 40682" d="M172.146,176.917c-.042-.088-.112-.146-.154-.146s-.056-.044-.056-.088-.014-.058-.084,0-.07.044-.056-.043c.014-.058.014-.117,0-.117s-.056-.044-.056-.1a.134.134,0,0,0-.154-.117c-.224-.029-.378.2-.658,1a17.966,17.966,0,0,1-2.565,4,2.747,2.747,0,0,1-.939.7c-.154,0-.14-.8.028-1.47a16.2,16.2,0,0,1,1.163-2.985c.448-.888.49-.976.42-1.107-.028-.058-.084-.116-.126-.116a.559.559,0,0,1-.28-.292c0-.087-.309-.029-.49.1a6.854,6.854,0,0,0-1.575,2.578,16.535,16.535,0,0,1-1.367,1.747,4.618,4.618,0,0,1-1.121.975,3.688,3.688,0,0,1,.211-1.02c.07-.262.294-.874.476-1.368a6.852,6.852,0,0,0,.56-1.937.383.383,0,0,0-.154-.378c-.1-.088-.182-.146-.21-.131s-.042,0-.056-.043a.08.08,0,0,0-.1-.058c-.042.015-.07,0-.07-.043,0-.073-.014-.073-.1.014-.1.088-.1.088-.042-.014.07-.16.056-.248-.042-.277-.182-.058-.323.015-.463.262-.14.218-.224.306-.224.189,0-.029-.042-.058-.1-.073a1.835,1.835,0,0,1-.392-.306c-.224-.233-.322-.291-.49-.321a2.068,2.068,0,0,0-1.4.48c-1.163.889-2.62,3.669-2.522,4.805a2.415,2.415,0,0,0,.14.524c.14.306.462.655.588.655a.843.843,0,0,1,.323.218c.35.335.574.277,1.107-.291.253-.291.981-1.252,1.3-1.733l.224-.349.028.364a1.691,1.691,0,0,0,.715,1.369.535.535,0,0,1,.224.175c.07.189.546.262.757.116a8.616,8.616,0,0,0,1.808-2.341,4.77,4.77,0,0,0-.1.551,2.655,2.655,0,0,0,.225,1.31c.168.349.49.743.6.743a.365.365,0,0,1,.2.146,1.115,1.115,0,0,0,.253.218,1.083,1.083,0,0,0,.686.014,3.2,3.2,0,0,0,.645-.422c.07-.058.042.029-.126.349-1.163,2.272-2.494,3.888-3.181,3.888-.154,0-.378-.088-.378-.16,0-.014-.056-.029-.126-.014-.182.014-.182.175,0,.422a1.323,1.323,0,0,0,.308.277.868.868,0,0,1,.238.175,1.619,1.619,0,0,0,.757.349,1.7,1.7,0,0,0,.771-.088,4.572,4.572,0,0,0,1.527-1.368,19.777,19.777,0,0,0,2.34-4.485,33.582,33.582,0,0,0,1.387-4.514A.505.505,0,0,0,172.146,176.917Zm-8.855,1.034a18.172,18.172,0,0,1-2.382,3.291,1.291,1.291,0,0,1-.266.218,5.857,5.857,0,0,1,.49-1.369,6.679,6.679,0,0,1,1.906-2.519,3.9,3.9,0,0,1,.378-.248C163.557,177.267,163.529,177.456,163.291,177.951Z" transform="translate(-128.444 -170.449)" fill="#fff"/>
      <path id="Path_40683" data-name="Path 40683" d="M197.824,175.7a4.051,4.051,0,0,1-.336-.422,1.251,1.251,0,0,0-1.4-.408,2.882,2.882,0,0,0-1.569,1.761,2.207,2.207,0,0,0,.645,2.17c.476.509.532.582.5.859a2.283,2.283,0,0,1-1.219,1.558,1.163,1.163,0,0,1-.7.189,1.587,1.587,0,0,0-.448.043c-.154.044-.182.233-.042.423a6.959,6.959,0,0,0,1.051,1.034,1.318,1.318,0,0,0,.462.029,1.361,1.361,0,0,0,.827-.262,2.115,2.115,0,0,0,.785-.568,2.2,2.2,0,0,0,.673-1.951,3.569,3.569,0,0,0-.771-1.179c-.406-.423-.491-.626-.448-.961a2.269,2.269,0,0,1,1.023-1.441c.448-.248.448-.248.448.088,0,.247.014.291.126.422a.482.482,0,0,1,.126.189c0,.088.14.1.253.029a1.126,1.126,0,0,0,.378-.728A1.084,1.084,0,0,0,197.824,175.7Z" transform="translate(-150.381 -169.723)" fill="#fff"/>
    </g>
  </g>
</svg>
