<svg width="402" height="145" viewBox="0 0 402 145" fill="none" xmlns="http://www.w3.org/2000/svg">
<path d="M116.798 117.874C116.722 117.313 116.172 116.933 115.693 117.237C114.986 117.681 114.214 118.044 113.378 118.301C113.105 118.385 112.827 118.458 112.546 118.52C112.104 118.617 111.767 118.119 112.029 117.75C112.107 117.64 112.182 117.53 112.255 117.418C115.833 111.957 115.582 106.315 112.267 102.772C112.004 102.486 111.565 102.521 111.466 102.901C111.168 104.035 110.688 105.146 110.004 106.181C109.263 107.305 108.33 108.235 107.265 108.967C106.936 109.193 106.485 108.953 106.485 108.553V103.018C106.485 66.3542 76.6145 51.9599 61.1973 48.5222C56.7831 47.3879 57.8646 37.5072 54.6432 28.9537C54.4854 28.5386 54.918 28.1469 55.3214 28.334C67.0145 33.742 78.0003 38.8988 85.6826 40.9801C94.0022 43.2427 102.369 39.9687 105.83 32.6137C106.374 31.4678 106.572 30.2342 105.432 29.6787L62.5536 23.037C61.9399 22.9376 62.0158 22.0373 62.6356 22.049C73.5568 22.2711 85.2558 22.1951 91.383 21.2363C101.001 19.7279 105.9 14.5303 106.245 7.52615C106.303 6.25739 105.251 5.23425 104.023 5.56166L51.72 15.9744C51.6872 15.9776 51.634 15.9829 51.6013 15.9861H29.62C18.2951 15.8575 11.1681 21.4819 5.87702 30.7077C3.47415 34.8939 3.59111 38.7526 5.90628 42.9329C8.51384 47.6452 13.5652 52.6382 17.7866 55.4621C18.0614 55.6492 18.0789 56.0409 17.8217 56.2572C10.8466 62.057 6.39744 70.7977 6.39744 80.5789C6.39744 85.9052 7.7129 90.9157 10.034 95.3181C11.4371 97.9724 11.1331 96.9785 7.51408 129.029C7.33278 130.649 7.42061 130.748 7.0873 130.894C1.66171 133.221 0.667789 137.53 0.504086 138.986C0.439716 139.588 1.15299 139.495 1.43959 139.495H16.4945C17.5585 139.495 17.8859 138.676 17.9678 137.671C18.6284 129.158 20.5754 119.938 23.5278 112.606C24.8549 109.315 28.3746 105.357 31.1985 104.544C32.093 104.293 32.9699 105.012 32.8764 105.941C30.5086 130.058 30.7073 129.842 30.263 130.035C24.2878 132.596 23.2063 137.332 23.0133 138.939C22.9782 139.238 23.2238 139.495 23.5453 139.495H41.0558C42.2311 139.495 43.1488 138.594 43.1781 137.489C43.7452 116.898 50.5739 100.598 62.3782 92.9737C63.0037 92.5703 63.7579 93.2602 63.4305 93.9384C61.8987 97.1014 61.0335 101.726 61.0335 105.48C61.0335 118.64 69.2946 124.159 76.9127 128.264C77.6318 128.655 77.2811 129.749 76.4683 129.649C64.8044 128.182 49.0304 125.393 47.5981 137.864C47.5044 138.729 48.171 139.495 49.0421 139.495H105.988C106.262 139.495 106.485 139.272 106.485 138.998V128.009C106.485 127.775 106.647 127.579 106.875 127.526C107.081 127.477 107.289 127.422 107.496 127.357C112.664 125.767 117.161 120.639 116.798 117.874ZM36.3377 37.1271C36.2733 37.5481 35.8173 37.5773 35.5249 37.2675C31.9879 33.4965 25.621 34.1746 22.8555 37.2967C22.5749 37.6183 22.1072 37.5832 22.0429 37.1623C21.3764 32.789 24.9487 28.9361 29.1699 28.9712C33.3852 28.9127 36.9808 32.7481 36.3377 37.1271Z" fill="#2622F7"/>
<path d="M263.788 43.032C263.5 42.24 262.78 42.384 262.78 43.176V66H251.98V15.6H262.78V35.688C262.78 36.552 263.5 36.696 263.788 35.904L271.996 15.6H283.372L272.284 35.544L283.948 66H272.284L263.788 43.032Z" fill="#2622F7"/>
<path d="M232.011 66.864C221.643 66.864 216.387 60.24 217.827 46.272H227.043C226.251 54.624 227.691 57.936 231.435 57.936C234.675 57.936 236.187 55.344 236.187 49.872C236.187 43.32 233.811 40.224 228.699 40.224H218.763L220.779 15.6H245.403V24.384H229.275L227.043 34.536C226.827 35.4 227.475 35.688 227.979 34.968C229.275 33.024 231.147 32.16 233.883 32.16C241.803 32.16 247.131 39.36 247.131 50.16C247.131 60.96 241.803 66.864 232.011 66.864Z" fill="#2622F7"/>
<path d="M204.486 66L202.902 64.416V56.208L204.486 54.624H212.118L213.702 56.208V64.416L212.118 66H204.486Z" fill="#2622F7"/>
<path d="M194.604 25.392C194.82 24.816 194.604 24.384 193.956 24.384H177.828V15.6H206.34V17.76L190.644 66H178.98L194.604 25.392Z" fill="#2622F7"/>
<path d="M145.042 66V63.84L156.202 46.992C161.242 39.36 163.474 33.744 163.474 29.424C163.474 25.752 161.962 23.664 159.298 23.664C155.914 23.664 154.474 26.976 154.762 34.464H145.69C144.97 21.36 149.938 14.736 159.586 14.736C168.514 14.736 174.274 20.424 174.274 29.352C174.274 35.4 171.538 41.304 164.266 50.592L159.874 56.208C159.37 56.856 159.73 57.216 160.306 57.216H174.274V66H145.042Z" fill="#2622F7"/>
<path d="M253.51 139.324C249.703 139.324 247.624 136.489 248.245 132.196H251.647C251.35 134.518 251.971 136.03 253.402 136.03C254.509 136.03 255.157 135.085 255.157 133.654C255.157 132.466 254.644 131.845 252.997 131.17L251.512 130.549C249.19 129.577 248.083 127.93 248.083 125.473C248.083 122.044 250.216 119.776 253.402 119.776C256.804 119.776 258.775 122.26 258.532 126.094H255.184C255.292 124.231 254.725 123.07 253.51 123.07C252.565 123.07 252.025 123.853 252.025 125.041C252.025 126.121 252.484 126.661 253.915 127.255L255.859 128.065C258.073 128.983 259.099 130.63 259.099 133.222C259.099 136.948 256.912 139.324 253.51 139.324Z" fill="#260071"/>
<path d="M237.116 139V120.1H246.782V123.394H241.166V127.39H244.514V130.576H241.166V135.706H246.998V139H237.116Z" fill="#260071"/>
<path d="M220.943 139V120.1H225.155L227.882 128.929C227.963 129.226 228.206 129.253 228.287 128.929L230.339 120.1H234.767V139H230.771V130.333C230.771 130.063 230.501 129.982 230.42 130.279L228.044 137.92H227.234L224.858 130.279C224.777 129.982 224.507 130.063 224.507 130.333V139H220.943Z" fill="#260071"/>
<path d="M212.814 139.324C208.656 139.324 206.712 136.435 206.712 129.82C206.712 123.124 208.71 119.776 212.922 119.776C217.08 119.776 219.024 123.097 219.024 129.712C219.024 136.408 217.026 139.324 212.814 139.324ZM210.924 129.712C210.924 134.383 211.491 135.976 212.922 135.976C214.272 135.976 214.812 134.41 214.812 129.82C214.812 125.149 214.245 123.124 212.814 123.124C211.464 123.124 210.924 125.122 210.924 129.712Z" fill="#260071"/>
<path d="M200.745 139V130.603H197.289V139H193.239V120.1H197.289V127.363H200.745V120.1H204.795V139H200.745Z" fill="#260071"/>
<path d="M178.222 121.18H179.032L182.164 131.143C182.272 131.467 182.515 131.467 182.542 131.143L183.649 120.1H187.564L184.189 139H180.571L178.573 131.521C178.492 131.224 178.276 131.224 178.195 131.521L176.467 139H172.849L169.474 120.1H173.605L175.306 131.143C175.36 131.467 175.603 131.467 175.684 131.143L178.222 121.18Z" fill="#260071"/>
<path d="M158.379 139V120.1H168.045V123.394H162.429V127.39H165.777V130.576H162.429V135.706H168.261V139H158.379Z" fill="#260071"/>
<path d="M144.791 139V120.1H148.733L152.027 127.255C152.162 127.552 152.405 127.498 152.405 127.174V120.1H156.023V139H153.755L148.787 128.875C148.652 128.578 148.409 128.632 148.409 128.956V139H144.791Z" fill="#260071"/>
<path d="M314.216 108V99.981L309.842 89.1H314.216L316.403 95.499C316.511 95.796 316.727 95.796 316.808 95.499L318.428 89.1H322.586L318.266 99.981V108H314.216Z" fill="#260071"/>
<path d="M298.433 108V89.1H304.049C307.721 89.1 309.827 91.071 309.827 94.689C309.827 98.307 307.694 100.278 303.941 100.278H302.483V108H298.433ZM302.483 97.092H303.833C305.048 97.092 305.723 96.255 305.723 94.743C305.723 93.231 305.021 92.394 303.725 92.394H302.483V97.092Z" fill="#260071"/>
<path d="M285.398 108V89.1H291.014C294.686 89.1 296.792 91.071 296.792 94.689C296.792 98.307 294.659 100.278 290.906 100.278H289.448V108H285.398ZM289.448 97.092H290.798C292.013 97.092 292.688 96.255 292.688 94.743C292.688 93.231 291.986 92.394 290.69 92.394H289.448V97.092Z" fill="#260071"/>
<path d="M277.421 94.689C277.367 94.365 277.097 94.365 277.043 94.689L276.098 101.736H278.69L277.421 94.689ZM271.373 108L275.234 89.1H280.04L283.901 108H279.797L279.23 104.814H275.693L275.261 108H271.373Z" fill="#260071"/>
<path d="M265.833 108V99.603H262.377V108H258.327V89.1H262.377V96.363H265.833V89.1H269.883V108H265.833Z" fill="#260071"/>
<path d="M240.773 108V89.1H244.715L248.009 96.255C248.144 96.552 248.387 96.498 248.387 96.174V89.1H252.005V108H249.737L244.769 97.875C244.634 97.578 244.391 97.632 244.391 97.956V108H240.773Z" fill="#260071"/>
<path d="M234.383 108V89.1H238.433V108H234.383Z" fill="#260071"/>
<path d="M223.011 108.324C219.204 108.324 217.125 105.489 217.746 101.196H221.148C220.851 103.518 221.472 105.03 222.903 105.03C224.01 105.03 224.658 104.085 224.658 102.654C224.658 101.466 224.145 100.845 222.498 100.17L221.013 99.549C218.691 98.577 217.584 96.93 217.584 94.473C217.584 91.044 219.717 88.776 222.903 88.776C226.305 88.776 228.276 91.26 228.033 95.094H224.685C224.793 93.231 224.226 92.07 223.011 92.07C222.066 92.07 221.526 92.853 221.526 94.041C221.526 95.121 221.985 95.661 223.416 96.255L225.36 97.065C227.574 97.983 228.6 99.63 228.6 102.222C228.6 105.948 226.413 108.324 223.011 108.324Z" fill="#260071"/>
<path d="M207.486 108V89.1H211.536V104.706H216.72V108H207.486Z" fill="#260071"/>
<path d="M199.509 94.689C199.455 94.365 199.185 94.365 199.131 94.689L198.186 101.736H200.778L199.509 94.689ZM193.461 108L197.322 89.1H202.128L205.989 108H201.885L201.318 104.814H197.781L197.349 108H193.461Z" fill="#260071"/>
<path d="M178.147 108V89.1H182.359L185.086 97.929C185.167 98.226 185.41 98.253 185.491 97.929L187.543 89.1H191.971V108H187.975V99.333C187.975 99.063 187.705 98.982 187.624 99.279L185.248 106.92H184.438L182.062 99.279C181.981 98.982 181.711 99.063 181.711 99.333V108H178.147Z" fill="#260071"/>
<path d="M171.757 108V89.1H175.807V108H171.757Z" fill="#260071"/>
<path d="M158.168 108V89.1H162.11L165.404 96.255C165.539 96.552 165.782 96.498 165.782 96.174V89.1H169.4V108H167.132L162.164 97.875C162.029 97.578 161.786 97.632 161.786 97.956V108H158.168Z" fill="#260071"/>
<path d="M150.191 94.689C150.137 94.365 149.867 94.365 149.813 94.689L148.868 101.736H151.46L150.191 94.689ZM144.143 108L148.004 89.1H152.81L156.671 108H152.567L152 104.814H148.463L148.031 108H144.143Z" fill="#260071"/>
</svg>
